<?xml version="1.0" encoding="UTF-8"?><svg id="_1" xmlns="http://www.w3.org/2000/svg" viewBox="0 0 2780.45 2899.6"><defs><style>.cls-1{fill:#f9f9f5;}.cls-2{fill:#040404;}.cls-3{fill:#010101;}.cls-4{fill:#010102;}.cls-5{fill:#050405;}.cls-6{fill:#050407;}.cls-7{fill:#020202;}.cls-8{fill:#020203;}.cls-9{fill:#694d9e;}.cls-10{fill:#000001;}.cls-11{fill:#ebe9ea;}.cls-12{fill:#eae8e9;}.cls-13{fill:#fcfdf7;}.cls-14{fill:#e3c2fc;}.cls-15{fill:#eceaeb;}.cls-16{fill:#6b4f9d;}.cls-17{fill:#74549e;}.cls-18{fill:#74559d;}.cls-19{fill:#684b9b;}.cls-20{fill:#684c9b;}.cls-21{fill:#747474;}.cls-22{fill:#6c6a6b;}.cls-23{fill:#989898;}.cls-24{fill:#848484;}.cls-25{fill:#7356a0;}.cls-26{fill:#7355a3;}.cls-27{fill:#a5949d;}.cls-28{fill:#acacac;}.cls-29{fill:#a970ef;}.cls-30{fill:#a56cf5;}.cls-31{fill:#a56cfc;}.cls-32{fill:#a56dfa;}.cls-33{fill:#aaa;}.cls-34{fill:#a5a5a5;}.cls-35{fill:#a574df;}.cls-36{fill:#b2b2b2;}.cls-37{fill:#a49e83;}.cls-38{fill:#a66df8;}.cls-39{fill:#a66dfc;}.cls-40{fill:#a86df9;}.cls-41{fill:#c0c074;}.cls-42{fill:#ccd263;}.cls-43{fill:#cff20c;}.cls-44{fill:#cff400;}.cls-45{fill:#cff408;}.cls-46{fill:#d0f310;}.cls-47{fill:#d2ee11;}.cls-48{fill:#d2f212;}.cls-49{fill:#e0d6e4;}.cls-50{fill:#c5c86e;}.cls-51{fill:#170c22;}.cls-52{fill:#0c0712;}.cls-53{fill:#0d0713;}.cls-54{fill:#42343a;}.cls-55{fill:#422e5a;}.cls-56{fill:#413f40;}.cls-57{fill:#09050e;}.cls-58{fill:#09050d;}.cls-59{fill:#07040a;}.cls-60{fill:#452860;}.cls-61{fill:#412e53;}.cls-62{fill:#412f56;}.cls-63{fill:#452e61;}.cls-64{fill:#0a0610;}.cls-65{fill:#0a0710;}.cls-66{fill:#3e2754;}.cls-67{fill:#a46cfd;}.cls-68{fill:#a46dfd;}.cls-69{fill:#716f70;}.cls-70{fill:#a2a2a2;}.cls-71{fill:#535935;}.cls-72{fill:#6e6e6e;}.cls-73{fill:#6d519d;}.cls-74{fill:#646464;}.cls-75{fill:#636262;}.cls-76{fill:#634896;}.cls-77{fill:#5b5a5b;}.cls-78{fill:#5c408b;}.cls-79{fill:#5b427b;}.cls-80{fill:#595758;}.cls-81{fill:#2a1a3f;}.cls-82{fill:#573480;}.cls-83{fill:#64488c;}.cls-84{fill:#4b3d48;}.cls-85{fill:#493360;}.cls-86{fill:#483160;}.cls-87{fill:#3b284f;}.cls-88{fill:#3d2a52;}.cls-89{fill:#4b3e55;}.cls-90{fill:#624496;}.cls-91{fill:#626061;}.cls-92{fill:#4a3560;}.cls-93{fill:#605d60;}.cls-94{fill:#605e5f;}.cls-95{fill:#5f5d5e;}.cls-96{fill:#47305e;}.cls-97{fill:#5e408d;}.cls-98{fill:#5d438e;}.cls-99{fill:#46315b;}.cls-100{fill:#7557a6;}.cls-101{fill:#616060;}.cls-102{fill:#4d3d50;}.cls-103{fill:#4f3a73;}.cls-104{fill:#51415f;}.cls-105{fill:#513e64;}.cls-106{fill:#503b58;}.cls-107{fill:#7659a3;}.cls-108{fill:#4e3962;}.cls-109{fill:#828282;}.cls-110{fill:#515534;}.cls-111{fill:#4d4b4e;}.cls-112{fill:#51397d;}.cls-113{fill:#514f50;}.cls-114{fill:#000704;fill-rule:evenodd;}</style></defs><path d="M2367.03,2348.69c-32.17,6.08-60.09,22.14-87.29,38.96-60.95,37.7-116.34,82.59-166.67,133.63-31.46,31.91-57.82,66.94-70.14,111.14-6.17,22.15-7.11,44.72-8.65,67.34-.41,6.05,4.18,10.48,4.86,17.05-11.83-3.79-20.9-9.52-29.7-18.18-34.64-34.07-67.07-71.09-108.73-96.93-24.07-14.93-51.4-19.91-80.6-19.26-54.04,1.21-108.25,4.43-162.02-6.82-37.24-7.79-72.22-21.86-107.8-34.36-37-12.99-73.19-28.71-110.84-39.31-42.16-11.88-85.56-19.38-128.42-28.76-20.02-4.38-40.36-7.63-59.98-13.35-21.96-6.39-39.91-19.49-52.64-39-1.22-3.02-1.59-6.48-4.51-8.61-1.83-.77-1.55-2.49-1.79-3.98-8.25-16.74-18.17-32.73-24.68-50.25-8.94-24.05-9.57-48.64-1.92-73.23,5.57-17.91,10.73-35.94,15.53-54.05,1.7-6.4,.62-13.52,1.57-20.26,1.44-8.97,4.31-17.35,10.11-24.53,6.42-11.51,17.15-9.85,27.42-8.56,8.12,1.03,16.14,2.92,24.29,3.8,14.36,2.84,23.69,13.03,33.32,22.81,2.27,2.38,4.31,4.92,5.61,7.98,1.26,3.63,3.18,7,4.43,10.65,3.66,14.6,4.04,29.1,.43,43.89-3.19,13.09-1.71,26.63-1.89,39.99-.22,16.14-4.72,30.54-18.11,43.42,14.03-12.38,17.61-27.06,18.43-42.83,.52-10.12-.29-20.27,.42-30.37,.33-4.69-.55-10.7,6.43-12.18,17.84,3.07,34.2,10.76,51.15,16.56,21.79,7.46,42.91,16.8,65.06,23.24,11.1,3.23,22.52,4.7,34,5.79,24.03,3.74,47.49,1.37,70.41-6.63,63.12-22.04,125.64-45.74,188.54-68.37,69.03-24.83,137.77-50.46,206.88-75.08,7.5-2.67,15.05-5.28,20.72-11.31,2.75-2.59,5.15-5.48,6.97-8.8,2.8-12.83,.96-25.79,1.12-38.68-.23-1-.52-1.98-.91-2.94-1.2-2.93-1.35-5.88-.22-8.87,.25-.94,.55-1.88,.83-2.81,.6-8.8-5.88-11.39-12.31-14.02-76.15-28.7-152.91-55.67-229.26-83.8-74.64-27.5-149.46-54.55-224.24-81.67-24.81-9-50.89-10.17-76.64-13.44-7.16-.91-14.28-2.28-21.54-2.51-3.7-.11-7.15-1.2-9.31-4.66-.86-13.28,4.12-20.28,13.98-19.68,12.32,4.82,24.6,9.74,36.99,14.37,2.23,.83,5.58,1.52,7.23,.45,3.21-2.09,.3-5.07-.39-7.7-3.53-13.51-3.2-27.35-2.24-41.01,.96-13.68,14.08-23.1,28.68-21.32,25.76,3.15,51.56,6.19,77.17,10.3,14,2.25,27.64,.26,40.47-3.35,43.61-12.27,86.29-6.01,129.32,2.75,48.66,9.91,97.58,18.51,146.27,28.25,21.44,4.29,43.13,7.32,63.65,16.12,23.98,10.28,41.68,28.11,59.69,45.7,59.43,58.05,118.53,116.45,178,174.47,25.05,24.43,39.41,54.92,49.52,87.43,14.43,46.42,41.09,82.66,82.52,108.37,33.05,20.52,65.52,41.99,98.24,63.03,.37,5.9-5.04,1.81-6.84,3.97Z"/><path d="M1698.24,472.02c47.62,54.08,95.43,108,142.72,162.36,11.75,13.51,14.18,31.08,16.46,48.24,2.72,20.53,1.43,40.91-2.88,61.13-1.15,1.83-2.39,3.52-4.92,3.3-10.51-3.97-15.31-13.92-22.22-21.58-34.79-38.64-68.39-78.32-103.05-117.08-14-15.85-27.47-32.16-42.07-47.49-7.93-9.84-17.19-18.49-24.84-28.59-5.5-7.26-7.88-14.92-7.98-24.03-.25-22.69,1.51-45.36-1.07-68.09-2-17.66-9.76-31.25-23.11-42.24-.99-1.06-1.49,1.04-.64-.13,16.52,32.45,9.47,65.45,2.27,98.44-3.32,5.08-9.79,1.49-13.7,4.98-.85,.49-1.73,.9-2.62,1.31-6.8,2.53-13.25,5.79-19.52,9.44-.86,.53-1.76,.97-2.7,1.35-8.5,2.22-16.48,10.06-25.92,2.46-4.6-3.27-8.82-6.91-11.5-12.02-1.52-4.3-4.61-7.43-7.84-10.46-.75-.73-1.41-1.51-2.05-2.33-17.46-21.19-36.05-41.39-54.09-62.07-34.19-39.18-68.93-77.86-103-117.15-10.88-12.54-22.69-24.25-32.94-37.36-7.8-9.98-7.1-13.14,4.24-18.63,48.17-23.34,97.54-43.67,149-58.5,13.82-3.98,27.82-7.72,42.04-10.32,5.68,.45,10.82-1.52,15.93-3.63,5.38-.92,10.8-1.61,16.11-2.93,27.39-1.76,54.63-5.83,82.19-4.84,18.8,.68,37.2,4.04,55.59,7.54,.39,0,.76,.08,1.12,.22,5.25,1.54,11.04,.89,15.93,3.92l-.12-.05c2.94,3.42,7.64-.32,10.69,2.64l-.08-.03c4.72,3.51,10.65,4.07,15.83,6.45,7.12,1.03,11.17,6.44,15.41,11.26,59.96,68.04,119.86,136.13,179.71,204.27,7.33,8.34,14.33,16.96,21.49,25.45,1.61,3.89,6.68,5.76,6.41,11.6-7.49-1.31-14.49-3.43-21.64-5.3-42.41-11.11-85.61-11.22-128.92-7.81-6.34,.5-12.73,2.22-18.97,3.65-4.86,1.12-8.42,.42-12.03-2.39-12.78-10.21-21.86-23.87-32.73-35.86-19.84-21.88-39.14-44.28-58.57-66.54-.26-.63-.39-.96-.39-.98-.21-.68-.6-1.93-.76-1.89-1.48,.32,.17,.96-.03,1.52,.34,.9,.6,1.77,.84,2.67,1.89,5.33,3.67,10.66,6.53,15.56,3.6,9.81,6.42,19.8,7.03,30.31,1.13,19,3.03,37.97,2.17,57.04-.2,4.31,.11,8.65-.75,12.91-.93,4.62-1.47,8.97-8.38,8.73-5.24-.19-9.71,4.1-15.2,4.89-2.65,.38-4.81,3.27-2.53,6.7Z"/><path d="M887.93,1619.1c-48.26,24.11-97.28,46.51-147.69,65.78-23.79,9.09-47.71,17.81-72.15,25.09-5.03,1.5-7.75,.16-11.02-3.62-22.14-25.62-44.55-51.01-66.88-76.47-9.07-12.66-19.83-23.93-30.19-35.47-22.96-25.56-45.02-51.9-68.04-77.4-16.47-18.25-32.51-36.88-48.64-55.43-6.26-7.21-5.39-10.88,3.88-14.21,15.65-5.62,31.48-10.72,47.06-16.53,3.74-1.4,7.47-2.72,10.83-4.94,14.45-5.85,29.21-10.96,43.43-17.41,22.46-7.15,43.76-17.26,64.9-27.37,38.46-18.39,76.6-37.52,113.7-58.63,6.15-3.5,10.86-8.29,15.92-12.88,25.67-16.82,52.61-31.59,78.33-48.39,26.92-17.58,53.52-35.59,79.73-54.18,3.5-1.91,7.04-3.76,9.52-7.07,28.23-21.9,56.96-43.16,84.42-66.03,5.04-4.2,9.68-3.73,14.53,.43,6.65,5.72,11.44,12.99,17.04,19.58,1.78,2.34,5.42,3.29,5.37,7.03-9.46,14.15-24.16,22.68-36.84,33.15-42.65,35.2-86.33,69.13-130.93,101.85-4.35,3.19-8.41,6.92-13.94,8.11-9.25-.1-18.71-4.11-27.65,1.5-21.75,9.1-36.71,25.63-49.11,44.93-2.7,2.42-1.02,6.25-2.82,8.97-4.18,3.92-8.32,7.97-13.29,10.82-6.04,3.46-6.89,7.66-2.92,13.14,1.28,2.7,2.66,5.39,2.35,8.53-.2,.97-.56,1.88-1.05,2.74-2.6,3.42-1.88,7.41-1.9,11.29-1.55,11.47-3.14,23.04-3.44,34.5-1.28,48.66,7.93,94.52,41.09,132.43,26.87,30.71,66.84,31.5,95.64,2.86,4.62-4.59,8.8-9.6,13.61-14.01,1.81-1.32,3.8-2.18,6.07-2.24,10.65,4.82,15.97,14.97,23.19,23.22,1.55,2.87,3.3,5.61,5.43,8.1,.55,.76,.94,1.61,1.19,2.51,.03,.96-.28,1.81-.95,2.51-14.09,4.05-26.1,12.36-38.91,19.05-1.71,4.03-6.14,2.29-8.86,4.19Z"/><path d="M842.83,45.9c1.22,.33,2.44,.66,3.66,.99,3.46,1.6,6.48-2.49,9.96-.78,15.98,13.9,27.13,31.84,39.79,48.42,39.42,51.63,80.12,102.28,119.21,154.17,6.03,8,13.97,14.68,16.58,24.93-.87,2.49-3.48,2.99-5.15,4.57-1.62,1.64-2.24,3.8-3.06,5.85-1.7,3.43-2.83,7.01-3.14,10.84-11.7,36.03-26.04,71.08-39.03,106.63-2.84,7.78-5.67,15.57-9.56,25.32,21.12-18.45,40.96-35.28,60.61-52.32,8.72-7.56,17.1-15.47,27.2-21.24,6.09-2.14,10.26-6.86,14.81-11.08,.67-.75,1.41-1.39,2.21-1.99,2.95-2.03,5.8-1.26,8.61,.33,6.95,8.38,16.52,15.08,17.49,27.29-13.68,12.38-28.6,23.24-42.87,34.92-10.09,8.25-10.16,8.96-1.99,18.53,23.23,27.21,47.23,53.74,70.95,80.52-23.1-25.8-45.4-52.29-68.41-78.17-9.93-11.16-9.77-12.69,1.72-22.24,13.61-11.32,28.29-21.34,40.93-33.85,8.06,1.49,11.12,8.66,15.44,14.11,18.38,23.19,35.97,47,54.62,70,12.72,15.69,27.75,28.32,45.19,38.19,50.9,28.79,100.79,59.31,151.69,88.1,3.81,2.15,7.26,4.73,9.51,8.63,.65,1.53,.75,3.09,.33,4.69-1.7,4.17-5.79,6-8.73,8.97-2.35,2.39-4.88,4.38-8.53,3.9-15.58-6.86-29.8-16.17-44.32-24.91-39.31-23.68-79.63-45.65-118.87-69.45-13.95-8.46-28.84-8.63-43.89-3.4-58.38,20.26-116.64,40.86-174.92,61.4-23.12,8.15-45.71,17.96-69.75,23.44-2.41-.29-4.2-1.37-4.83-3.87-.14-1.09-.05-2.16,.24-3.22,2.01-4.35,2.76-9.02,3.47-13.72,12.56-36.25,26.01-72.18,39.95-107.89,5.82-14.9,5.88-28.36,1.11-43.07-17.87-55.06-34.51-110.51-51.21-165.95-.61-2.01-.71-4.3-2.82-5.83-3.44,2.08-3.75,5.98-4.95,9.19-18.95,50.86-37.35,101.92-56.65,152.65-26.5,69.66-51.82,139.75-77.89,209.57-1.77,4.74-3.57,9.49-6.14,13.88-4.61,4.51-2.61,11-4.83,16.23-20.05,10.23-41.69,16.05-62.99,22.89-7.87,.79-10.66-2.65-8.44-10.19,.71-2.41,1.28-4.84,1.48-7.35,11.66-35.36,25.26-70.02,38.26-104.89,38.38-102.98,76.53-206.04,115.11-308.95,10.28-27.42,20.13-55,30.72-82.3,3.93-10.14,4.02-19.33,.78-29.42-6.74-20.99-12.89-42.17-19.22-63.28-.35-5.11-1.17-10.14-2.77-15.04-.22-1-.26-2.02-.13-3.04,.7-1.46,1.57-2.59,3.44-1.72Z"/><path d="M436.26,1899.39c-2.85-18.35,4.43-24.13,26-32.23,35.03-13.16,70.36-25.52,105.52-38.31,83.49-30.38,166.88-61.05,250.5-91.08,25.98-9.33,51.16-21.49,79.33-24.05,6.85-.62,13.65-.87,20.49-1.08,3.2-.1,6.79,.7,7.18-4.16,.43,.02,.86,.04,1.29,.06,.89,1.38,1.77,2.77,2.66,4.15,.77,.93,.98,1.97,.66,3.13,.41,11.73,6.49,21.79,9.98,32.56,10.34,31.87,20.95,63.66,31.62,95.42,5.05,15.02,10.64,29.86,15.04,45.11,2.19,7.6,.43,12.77-7.79,14.69-92.24,14.97-182.13,38.61-269.1,72.99-4.7,1.86-9.3,3.99-14.2,5.26-4,.75-8.18,.88-11.75,3.25-.84,.58-1.71,1.12-2.57,1.67-3.45,2.64-7.15,4.57-11.67,4.24-8.83-.92-16.33-5.71-24.47-8.62-61.31-21.92-122.38-44.51-183.57-66.77-6.12-2.22-12.17-4.7-17.21-9.02-2.28-2.79-5.61-4.46-7.92-7.23Z"/><path class="cls-10" d="M566.41,1341.32c4.98-1.65,9.95-3.3,14.93-4.95,2.22-1.48,1.76-5.23,4.97-5.88,18.69-5.75,36.78-13.1,54.66-20.94,8.77-3.85,9.23-5.61,2.67-12.12-33.86-33.61-54.2-74.71-66.21-120.22-6.85-25.97-10.14-52.6-8.93-79.47,.39-8.76-1.57-15.46-7.28-21.64-23.56-25.51-45.6-52.36-68.92-78.09-3.16-3.49-6.1-7.16-9.22-10.68-8.02-9.07-9.34-18.75-4.65-30.12,24.46-59.36,54.69-115.72,87.91-170.55,4.12-6.81,7.96-13.79,12.64-20.25,1.71-1.95,2.65-4.56,5.01-5.96,5.64,6.4,11.57,12.58,16.81,19.3,3.07,3.94,4.42,3.88,7.48-.08,10.01-12.95,19.01-26.55,27.63-40.44,.79-1.45,1.7-2.74,3.56-2.83,17.85,6.32,33.35,17.08,49.51,26.57,34.87,20.48,70.37,39.89,104.68,61.35,2.65,1.85,6.23,2.86,6.38,6.99-.61,4.25-3.83,6.84-6.32,9.89-38.56,47.2-56.95,101.29-52.32,162.07,3.07,40.33,16.57,77.65,40.3,110.86,1.89,2.65,3.89,5.23,5.35,8.16,1.83,3.71,2.65,7.47,.47,11.35-8.21,16.08-15.5,32.59-22.8,49.1-6.04,13.65-9.48,14.27-19.5,2.89-7.39-8.39-14.76-16.82-21.79-25.54-4.14-5.14-7.68-5.87-10.97,1.26-19.26,41.72-35.83,84.4-46.78,129.12-.57,2.32-2.12,5.13,.39,7.02,2.35,1.77,4.88,.06,7.11-.98,9.49-4.42,18.74-9.35,28.18-13.88,7.79-3.74,14.42-3.17,20.2,4.03,6.26,7.81,14.39,14.2,17.79,24.13-.9,5.39-5.34,7.48-9.4,9.71-46.72,25.69-93.82,50.6-142.61,72.22-4.83,2.14-9.31,3.77-14.48,1.97-6.28-2.97-11.17-7.9-16.58-12.07-17.41-13.43-45.35-14.2-54.54,17.02-2.25,7.64-3.69,15.42-5.09,23.23-2.29,7.48-8.39,10.56-15.11,12.62-12.07,3.71-24.08,7.62-35.99,11.81-10.66,3.75-11.04,4.81-3.24,13.53,25.29,28.25,49.9,57.09,75.02,85.49,21.05,23.79,42.27,47.43,62.92,71.58,1.99,2.32,6.73,4.67,1.19,8.25-22.7-2.59-44.44-8.74-65.3-17.99-5.49-2.43-8.86-7.39-12.65-11.69-72.48-82.29-144.88-164.65-217.28-247.01-.84-.95-2.23-1.82-1.24-3.94,56.19,25.45,115.33,24.9,175.02,19.36,2.55-.24,5.47-.14,6.76-2.63,1.66-3.2-1.03-5.25-2.94-7.39-24.63-27.72-49.26-55.44-73.83-83.21-1.62-1.83-2.77-4.09-4.15-6.15-.67-2.2,.62-2.99,2.43-3.41,5.27,.55,9.32,3.76,13.61,6.36,15.33,9.32,32.53,13.79,49.37,19.22,8.14,4.29,16.93,2.18,25.44,2.6,8.95,.44,17.96-.67,26.89,.75,5.09,1.75,8.96,5.04,11.89,9.49,10.24,13.79,22.47,25.87,33.83,38.7,4.5,5.08,11.14,3.32,17.1,2.1Z"/><path d="M1772.08,976.69c34.3-12.73,69.62-18.39,106.2-15.44,.51,2.86-1.72,3.26-3.56,4.02-4.78,.44-6.89,3.11-6.49,7.86-1.71,21.28-13.76,37.85-25.38,54.38-21.63,30.79-46.36,59.3-67.28,90.63-27.83,41.69-45.24,86.9-48.81,137.41-1.52,21.51,.32,42.46,3.74,63.49,3.92,19.96,10.4,38.9,21.78,55.99,2.97,4.46,6.28,8.82,7.46,14.27-.91,2.83-2.65,3.42-5.17,1.93-71.65-38.38-113.77-97.56-123.56-178.44-7.75-64.06,11.1-120.78,51.7-170.39,3.52-4.3,3.8-7.59,2.44-12.05-.74-.93-.64-1.77,.28-2.52,8.45,.9,10.08,9.57,15.63,13.82,4.26,3.26,6.93,8.18,11.72,12.43,14.52-20.35,25.78-42.39,39.23-63.03,2.38-2.2,4.49-4.61,5.46-7.82,.4-.86,.91-1.65,1.52-2.38,3.27-4.86,8.92-2.18,13.11-4.14Z"/><path d="M929.37,1714c-.07-.44-.12-.87-.15-1.31,35.1,1.36,66.65,15.56,98.91,27.26,93.26,33.84,186.55,67.61,279.84,101.38,19.94,7.22,39.9,14.37,59.84,21.55,3.15,3.22,.45,6.49,.08,9.75-3.91,5.59-1.08,15.42-10.88,17.34-48.95-3.2-97.93-7.84-146.95-6.32-42.12,1.31-84.32,2.5-126.33,7.29-26.14,2.98-52.47,4.37-78.41,9.18-3.91,.73-7.92,.51-11.83-.5-3.5-.96-5.2-3.47-5.86-6.86-12.74-40.5-26.72-80.59-40.25-120.84-5.96-17.74-11.18-35.73-18.7-52.92-.74-1.68-.74-3.51,.67-5.03Z"/><path class="cls-4" d="M1361.3,204.13c51.55-27.79,104.63-52.34,158.74-74.65,29.25-12.06,59.18-22.36,89.23-32.27,6.38-2.1,11.03-1.27,15.68,4.21,19.66,23.2,39.73,46.05,59.65,69.03-3.95,8.22-10.82,3.98-16.7,3.96-5.98-5.97-12.12-5.25-18.35-.36-3.13,.93-6.23,.95-9.29-.31-6.83-8.72-13.19-2.28-19.67,.65-17.01,5.12-34.79,5-52.14,7.79-1.05,.32-2.12,.57-3.21,.76-4.27,.24-8.49,.81-12.58,2.14-28.83,6.57-57.37,14.16-85.39,23.73-39.99,13.66-78.67,30.43-116.64,48.86-8.82,4.28-8.85,6.76-2.01,14.46,60.67,68.27,120.56,137.23,180.96,205.74,3.32,3.76,7.34,7.15,6.94,12.92-.61,2.16-2.18,3.48-4.01,4.56-3.57,1.54-6.92,3.51-10.22,5.56-.81,.5-1.65,.94-2.51,1.35-3.98,1.59-7.51,3.85-10.46,6.99-31.25,20.3-62.25,40.97-94.45,59.74-4.48,2.7-9.79,4.42-11.7,10.11-.34,.96-.8,1.86-1.33,2.72-1.04,1.3-2.33,1.97-4.03,1.55-12.22-10.92-20.92-24.79-30.84-37.57-57.19-73.65-114.24-147.42-171.52-221.01-6.88-8.84-13.99-17.48-20.07-26.9-1.26-3.18-3.01-6.06-5.37-8.56-.65-.74-1.21-1.54-1.76-2.36-2.04-4.87-9.9-8.74-2.67-15.23,32.22-22.91,64.37-45.94,96.71-68.68,13.7-9.63,27.96-18.46,41.66-28.09,4.79-3.37,7.56-2.62,11.23,1.52,8.96,10.12,16.02,21.86,26.2,30.93,3.65,5.5-1.78,6.57-4.48,8.31-13.94,8.98-28.81,16.38-43.14,24.71-32.77,19.05-64.43,39.84-96.1,60.62,35.74-23.79,72.2-46.45,109.44-67.8,14.93-8.56,29.58-17.76,45.65-24.21l-.06,.04c2.51-2.28,6.48-2.03,8.6-4.97Z"/><path d="M1181.31,2400.92c-18.68,1.47-37.33,3.67-56.04,4.24-30.77,.94-56.52-10.55-75.16-35.3-14.45-19.19-28.95-38.44-40.71-59.52-9.06-10.4-17.32-21.75-23.26-33.88-6.29-12.84-6.26-27.98-7.72-42.33-2.81-27.63-6.08-55.21-8.72-82.86-.25-2.63-1.09-4.91-2.84-6.87-5.37-15.91,11.55-33.89,30.36-32.25,2.89,.25,5.58,1.2,8.24,2.27,3.31,1.41,6.6,3.16,10.2,3.4,14.71,.97,28.18,5.31,40.23,13.89,17.54,10.72,28.54,26.31,32.78,46.24,2.04,9.61,8.06,13.64,16.4,16.52,22.46,7.76,45.03,15.23,66.84,24.76,7.95,3.59,9.58,9.15,7.28,17.6-5.67,20.87-13.22,41.19-17.68,62.41-5.37,25.52,.26,49.23,11.6,71.92,3.05,6.11,5.82,12.36,9,18.42,1.83,3.48,4.68,7.97-.82,11.33Z"/><path d="M1322.49,1364.75c-22.62,19.53-45.24,39.05-67.86,58.58-4.87,.3-3.93-5.8-7.58-6.85-9.97-9.72-18.82-20.46-28.19-30.72-51.85-59.63-104.12-118.9-156.41-178.14-13.02-16.74-13.11-24.96,2.36-39.22,29.53-27.22,59.88-53.55,88.93-81.29,38.22-36.49,75.21-74.16,110.56-113.47,15.24-16.94,29.9-34.39,45.4-51.08,5.33-2.64,6.96-10.24,14.06-10.52,.98,.33,1.85,.85,2.61,1.55,1.79,1.85,3.65,3.67,3.78,6.5-3.18,11.91-13.57,18.5-20.75,27.35-22.76,28.06-47.12,54.75-71.53,81.41-31.5,34.41-63.59,68.23-96.93,100.84-5.82,5.69-6.2,9.71-.51,16.22,40.43,46.24,81.36,92.04,121.71,138.35,17.56,20.15,34.94,40.49,53.06,60.16,3.92,4.26,7.48,8.82,10.43,13.83,.9,3.1-.27,5.21-3.13,6.49Z"/><path d="M1002.8,2309.75c-32.83-.32-60.38-13.02-81.91-37.33-33.96-38.35-67.6-77.01-100.27-116.44-14.5-17.51-34.62-25.44-53-36.39-25.32-15.09-51.35-29-76.95-43.62-12.73-7.27-19.32-18.97-22.24-33-.24-4.46,3.24-4.14,6.03-4.72,24.5,6.5,47.9,16.26,71.43,25.4,18.6,7.22,36.17,14.62,54.67,.9,6.03-.67,12.07-1.3,17.41-4.59,3.2-1.62,6.59-2.53,10.18-2.66,14.92,1.24,29.89-2.51,44.8,.36,7.57,3.92,11.69,12.57,20.41,14.95,2.75,.97,5.27,2.39,7.32,4.45,22.08,22.16,44.88,43.62,66.04,66.72,5.42,6.43,4.11,14.39,4.67,21.78,2.65,34.9,7.34,69.58,11.39,104.31,1.22,10.47,11.4,17.23,16.1,26.51,2.1,4.14,7.59,7.48,3.91,13.38Z"/><path d="M1685.16,1028.36c.02,.66,0,1.32-.02,1.97-10.59-9.11-10.43-9-18.45,2.65-11.91,17.29-24.08,34.39-36.14,51.57-6.61-3.32-7.05-12.45-14.31-15.16-18.59-18.44-34.49-39.29-52.1-58.62-3.37-3.7-6.51-7.63-10.1-11.14-1.12-1.05-2.17-2.15-3.21-3.27-29.98-35.61-61.48-69.9-91.94-105.08-10.62-12.26-21.81-24.06-31.59-37.04-4.75-9.38-3.32-18.18,2.6-26.49,39.2-55.09,73.91-112.84,102.9-173.97,3.77-4.2,5.32-9.35,6.26-14.76,.22-1.53,.6-3.01,1.23-4.43,.81-1.45,1.95-2.4,3.7-2.43,9.22,3.62,13.86,12.08,20.02,18.94,4.38,4.55,4.27,9.49,1.06,14.54-2.9,4.56-4.55,9.57-5.68,14.79-13.72,26.68-27.22,53.5-43.08,79.02-7.45,11.98-13.72,24.69-22.09,36.08-3.58,4.87-2.12,8.34,1.47,12.36,27.24,30.47,54.2,61.18,81.17,91.89,29.59,33.68,59.41,67.16,88.55,101.23,4.95,5.79,10.76,10.75,15.8,16.42,2.67,3,7.12,5.68,3.97,10.93Z"/><path d="M2017.46,498.57c29.29-1.35,52.25,17.09,56.34,45.62,1.56,10.89-2.44,20.68-8.13,29.63-19.2,30.22-47.3,50.04-78.65,65.65-11.84,5.89-24.45,10.23-36.71,15.27-7.38-1.39-3.75-8.62-6.62-12.4-3.09-11.19-5.15-22.66-8.84-33.7-1.03-10.36-5.44-19.39-11.14-27.91-.62-.85-1.14-1.75-1.61-2.69-4.02-7.44,1.02-11.88,5.45-16.53,21.46-18.38,46.79-29.49,73.21-38.3,13.4-4.47,13.58-3.92,7.72-17.42-2.34-9.03,5.6-5.29,8.97-7.22Z"/><path class="cls-14" d="M1358.94,1888.25c4.6-4.64,4.95-11.12,7.24-16.75,2.07-2.31,1.43-7.24,6.46-6.68,2.33-.22,4.76-.72,6.09,2.04-11.77,1.97-10.47,12.01-12.38,20.07,1.93,4.39,.43,8.57-.96,12.66-10.37,30.48-20.85,60.92-30.53,91.64-4.38,13.9-15.6,22.44-27.74,29.22-14.29,7.98-29.81,13.14-45.78,16.54-57.35,12.21-114.85,12.94-172.14,.09-21.51-4.82-42.78-11.19-60.26-25.88-8.55-7.18-13.68-15.84-16.66-27.03-6.05-22.69-14.9-44.58-22.27-66.91-1.7-5.15-3.86-10.16-3.98-15.7,2.74-2.98-2.55-8.9,3.84-10.54,.95,2.28,1.9,4.57,2.85,6.85,4.5,2.18,5.11,6.69,6.48,10.76,6.21,18.48,12.88,36.81,18.91,56.29,5.09-2.19,7.9-6.51,11.72-9.36,16.88-12.6,36.1-20.15,56.34-24.34,65.67-13.61,131.13-14.27,195.95,5.5,14.71,4.49,27.99,11.65,40.11,21.01,9.48,7.33,9.41,7.4,13.06-4.62,5.68-18.68,12.64-36.93,18.39-55.58,1.06-3.45,2.22-6.92,5.26-9.28Z"/><path class="cls-104" d="M2087.24,880.59c7.3-16.89,21.34-23.32,38.54-24.48,38.7-2.6,72.81,11.78,105.51,29.92,36.94,20.5,69.7,46.18,93.42,81.92,5.77,8.7,10.26,18.01,13.41,28.11,4.42,14.18,3.03,26.93-6.21,38.75-2.2,2.82-4.26,5.88-5.71,9.13-14.02,31.31-40.14,37.96-70.22,32.09-69.12-13.49-125.2-48.88-168.42-104.55,.39-1.59,1.31-2.56,3.03-2.59,3.7,.82,5.64,3.74,7.73,6.48,7.04,8.85,14.41,17.37,23.59,24.13,36.78,32.98,78.59,56.68,126.89,67.94,13.81,3.22,28.19,2.62,42.08,.31,9.43-1.57,17.35-7.14,21.08-15.62-68.83,3.53-123.6-28.56-174.75-69.84-7.47-9.61-16.68-17.58-24.99-26.39-1.79-5.24-7.69-4.1-10.97-7.05-.11-5.54,3.51-7.45,8.12-8.42,4.74,.63,7.5,4.07,10.33,7.36,40.99,47.7,92.27,78.24,153.6,91.8,10.63,2.35,21.76,2.28,32.39,.22,24.61-4.78,31.4-19.74,23.65-46.96-4.09-14.36-13.17-26.61-22.92-37.83-30.93-35.61-68.77-61.57-112.54-79.01-17.22-6.86-34.92-11.86-53.44-13.34-12.41-.99-24.37,.62-35.62,6.74-6.82,3.71-7.65,12.29-14.21,15.95-3.32-.04-2.41-3.07-3.37-4.77Z"/><path class="cls-89" d="M842.83,45.9c-.94,.85-1.88,1.69-2.82,2.54-16.59-1.63-22.1,9.62-26.82,22.47-27.69,75.31-56.07,150.36-83.6,225.72-1.58,4.31-2.84,9.13-8.02,10.93-3.56-1.23-5.8-3.5-5.9-7.46,21.21-53.04,39.94-107.02,60.43-160.34,2.76-7.19,1.29-11.25-5.78-14.57-24.34-11.44-49.32-18.89-76.51-13.37-28.56,5.8-44.77,25.5-46.29,54.8-1.7,32.87,11.19,60.65,29.46,86.58,6.66,9.45,13.85,18.54,21.89,26.91,2.5,2.61,5.07,5.21,5.6,9.06-.6,4.27-.12,9.22-6.18,10.18-3.76-7.22-7.95-14.15-14.01-19.75-11.56-13.33-21.03-28.17-30.77-42.81-13.58-25.7-20.98-52.6-16.8-80.36-14.36,21.15-12.02,48.27-4.27,73.46,2.42,7.87,5.73,15.54,9.65,22.86,6.08,15.37,16.27,27.89,27.57,39.62,5.49,5.64,10.42,11.83,16.73,16.66,.27,3.54-2.2,4.19-4.88,4.63-36.89-32.83-61.38-72.17-62.85-122.94-.4-13.86,3.61-27.48,12.63-38.2,17.98-21.37,34.58-44.75,65.8-48.9,25.75-3.43,49.31,3.41,72.26,13.55,15.82,6.99,15.76,7.43,21.87-8.34,6.09-15.72,12.08-31.49,17.76-47.37,1.74-4.85,4.09-9.22,7.26-13.11,8.63-10.57,15-11.07,26.6-2.44Z"/><path class="cls-77" d="M309.04,345.54c90.56-2.28,171.19,73.53,170.33,169.94-.85,95.92-76.89,169.38-170.36,169.23-91.09-.15-169.19-70.5-169.79-169.88-.6-98.45,81.73-171.57,169.83-169.29Z"/><path class="cls-55" d="M583.99,760.45c-.12,2.59,.92,5.53-2.2,7.21-13.16-15.21-11.53-19.94-24.93,2.37-36.94,61.49-70.47,124.77-96.07,191.91-13.93,36.54-26.19,73.84-29.62,113.02-2.23,25.44-3.73,51.31,6.31,76.1,3.33,8.2,7.58,15.3,13.49,21.94,28.15,31.61,56.18,63.33,83.89,95.33,14.92,17.23,30.31,34.05,45.21,51.29,3.02,3.5,8.54,6.3,6.17,12.64-1.64,1.37-3.28,2.75-4.91,4.12,1.78-5.85-3.18-8.53-6.04-11.79-42.3-48.24-84.28-96.79-127.43-144.26-18.36-20.19-23.9-43.81-25.1-69.42-2.02-42.83,7.93-83.75,21.38-123.89,27.8-82.95,69.1-159.33,114.86-233.47,8.41-13.62,8.61-13.54,19.31-.82,2.05,2.44,3.8,5.14,5.68,7.72Z"/><path class="cls-85" d="M388.16,1263.05c-.77,.82-1.55,1.64-2.32,2.45-33.06-29.92-49.48-67.87-54.46-111.6-2.61-22.9-3.1-45.64,.73-70.82,18.22,20.63,35.08,39.66,51.87,58.74,56.87,64.67,113.76,129.31,170.43,194.15,3.52,4.03,7.13,5.5,12,5.34-9.78,6.12-17.46,4.68-24.19-5.27-8.21-12.13-20.57-20.93-28.11-33.72,.29-.22,.69-.69,.84-.61,.93,.42,1.69-.03,1.22-.63-3.57-4.53-8.45-7.73-12.24-12.08-46.31-53.01-92.82-105.85-139.59-158.46-8.86-9.97-17.17-20.43-26.99-31.36-2.17,29.85-.28,58.05,7.5,85.91,7.34,26.31,19.97,49.39,39.26,68.82,2.37,2.39,5.84,4.71,4.04,9.13Z"/><path class="cls-61" d="M637.85,736.7c-.65,.84-1.29,1.69-1.94,2.53-13.31-10.37-29.14-16.71-42.38-27.4-14.35-11.58-18.1-21.09-11.36-39.67,11.27-31.06,22.84-62.01,34.36-92.98,27.58-74.14,55.3-148.22,82.64-222.44,2.8-7.59,7.72-14.83,6.5-23.62,3.77-.4,4.65,2.47,5.78,5.07,1.02,4.51-.69,8.55-2.21,12.61-39.25,105-78.32,210.07-117.34,315.15-2.92,7.85-5.29,15.88-4.66,24.3,.32,4.26,1.82,10.12,7.89,6.11,16.32-10.81,35.52-14.06,53.19-21.26,10.69-4.36,22.45-6.49,27.25-19.09,.52-1.37,2.16-1.78,3.72-1.57,.91,2.99-.21,5.66-1.47,8.21-3.56,7.19,.89,7.33,5.99,6.98,.45,5.49-4.45,4.8-7.33,6.02-18.57,7.85-38.05,13.22-56.8,20.61-2,.79-4.17,1.18-6.12,2.09-4.46,2.07-10.59,2.93-11.15,8.89-.54,5.74,5.42,6.9,9.22,9.31,6.08,3.85,12.57,7.03,18.64,10.87,3.41,2.15,8.22,3.63,7.58,9.28Z"/><path class="cls-22" d="M1372.65,1864.82c-2.15,2.23-4.31,4.45-6.46,6.68-1.35-3.23,1.41-5.68,1.63-8.61,10.62-20.92,16.2-43.67,23.7-65.71,30.91-90.88,61.47-181.87,92.02-272.87,26.89-80.11,53.58-160.28,80.34-240.43,1.34-4.02,2.29-8.2,5.28-11.56,2.76,2.31,1.34,4.79,.61,6.98-35.99,107.35-71.99,214.7-108.09,322.02-28.53,84.82-57.21,169.6-85.82,254.39-1.03,3.05-2.12,6.07-3.19,9.11Z"/><path class="cls-86" d="M1945.91,641.53c4.08,3.53,.38,9.66,4.41,13.2,3.06,18.97,3.16,37.97,.4,56.96-.28,1.95,.6,4.76-1.9,5.68-3.02,1.11-4.4-1.6-6.03-3.46-23.56-26.8-47.13-53.59-70.69-80.39-48.75-55.48-97.45-111.01-146.29-166.41-7.17-8.13-23.16-5.07-27.57,4.91-4.17-3.65-2.44-6.2,1.69-7.95,2.29-.97,4.78-1.72,7.24-2.02,12.76-1.57,14.77-9.61,15.08-21.02,.55-20.18-1.74-40.16-2.17-60.24,8.07,4.16,6.24,12.3,6.69,18.86,.94,13.69,.82,27.49,.14,41.2-.59,12.01,3.39,20.99,11.43,30.11,63.58,72.08,126.97,144.34,190.62,216.37,5.13,5.81,10.39,11.58,14.12,17.02,4.98-15.83-.31-32.61,.04-49.46,.09-4.57-1.09-9.52,2.79-13.34Z"/><path class="cls-96" d="M1617.66,1067.53c6.94,3.67,11.17,9.4,12.89,17.03-29.19,43.36-62.74,83.34-96.37,123.19-53.52,63.4-110.16,123.94-168.96,182.49-7.23,7.19-11.23,8.24-18.12-.29-7.33-9.07-13.81-19.36-24.61-25.19,.63-1.98,1.27-3.97,1.9-5.95,4.7-2.03,6.51,1.89,8.56,4.53,5.33,6.87,12.25,12.35,17.1,19.62,3.8,5.7,7.61,5.26,12.22,.55,17.46-17.85,35.84-34.81,52.69-53.23,27.34-29.88,55.05-59.42,81.85-89.8,19.14-21.7,37.82-43.78,56.29-66.02,21.49-25.87,42.12-52.44,62.15-79.49,5.47-7.39,10.83-13.93,2.22-22.46-1.27-1.26-1.14-3.36,.19-4.98Z"/><path class="cls-63" d="M2017.46,498.57c-1.78,2.68-8.28,.4-6.79,6.49-14.55,4.01-29.36,7.05-43.28,13.29-15.25,6.84-29.76,14.82-43.31,24.58-11.32,8.16-10.96,12.23,1.76,18.7,.97,.49,1.94,.95,2.67,1.78-3.78,4.35-8.07,8.55-4.29,15.06-3.12,1.31-4.69-.93-6.23-2.88-34.37-43.4-72.24-83.76-108.59-125.44-4.14-4.75-11.4-8.46-9.36-16.91,5.27,6.12,12.27,5.07,18.62,3.47,25.25-6.36,50.9-3.45,76.38-3.85,29.36-.46,57.6,6.65,85.82,14.64,.24-4.5-5.67-5.82-4.7-10.28,7.54,4.05,11.36,11.39,17.04,18.97-57.48-23.53-115.84-24.61-175.02-17.04-9.26,1.18-4.07,5.47-1.59,8.33,17.47,20.13,35.13,40.09,52.72,60.1,9.5,10.8,19.66,21.1,28.25,32.58,5.96,7.95,10.13,7.13,17.11,1.63,28.75-22.65,60.88-38.04,97.44-43.26,1.74-.25,3.55,.02,5.33,.05Z"/><path class="cls-93" d="M1165.59,271.74c-4.82,7.12,4.87,10.06,4.58,15.87-6.32,.54-8.5-4.69-11.47-8.52-23.47-30.26-46.45-60.88-70.41-90.76-12.15-15.16-26.23-27.36-43.1-37.22-60.5-35.35-121.25-70.29-181.52-106.05-3.02-1.79-6.98-6.48-8.58,1.43-2.66,4.69-5.46,6.24-8.61,.4,4.07-1.26,2.04-3.55,1.16-5.9-1.15-3.03-5.42-6.08-1.01-9.45,3.58-2.73,7.04-.01,10.01,1.66,12.21,6.89,24.25,14.08,36.36,21.16,52.78,30.85,105.2,62.36,158.52,92.25,23.98,13.44,39.78,34,55.98,54.69,15.99,20.42,31.62,41.13,47.6,61.57,2.8,3.58,5.48,7.71,10.48,8.86Z"/><path class="cls-94" d="M2012.04,1021.44c35.33,32.27,57.97,71.86,67.84,118.62,14.71,69.74-.2,133.08-43.83,188.99-35.19,45.09-81.44,73.21-138.15,83.28-1.75-.67-2.93-1.66-2.08-3.76,2.87-3.24,6.98-3.61,10.8-4.5,90.67-21.04,158.89-94.14,170.2-189.25,8.14-68.5-12.42-129.38-60.15-180.26-3.51-3.74-9.11-6.52-7.89-13.2,1.1-.49,2.19-.47,3.26,.08Z"/><path class="cls-7" d="M2109.04,941.1c-1.7,3.38-7.29,3.65-6.92,8.68,.12,9.23-8.41,12.97-12.42,19.58-.72,.71-1.44,1.42-2.16,2.13-3.21-5.16-6.61-10.21-9.6-15.5-12.44-21.97-15.39-43.61,2.38-64.57,2.74-3.24,4.63-7.2,6.91-10.83,.8,1.54,1.59,3.08,2.39,4.62,1.97,4.71,.36,9.92,2.05,14.67,.3,6.09,1.82,11.78,5.47,16.77,3.81,8.23,11.49,14.57,11.9,24.45Z"/><path class="cls-92" d="M1248.55,1414.99c5.74,.07,3.74,5.78,6.07,8.33-24.04,22.86-50.53,42.77-76.43,63.37-63.92,50.84-130.06,98.65-198.1,143.85-7.02,4.67-11.11,5.34-16.6-1.79-8.75-11.36-18.48-21.96-27.79-32.89,.14-1.01,.29-2.03,.43-3.04,4.71-2.04,6.29,2.17,8.76,4.46,6.93,6.4,12.8,13.79,18.66,21.12,6.01,7.53,11.94,7.63,19.49,2.33,24.57-17.24,49.57-33.88,73.94-51.39,54.04-38.81,107.01-79.07,158.34-121.42,8.36-6.9,16.79-13.72,25.2-20.57,4.18-3.41,6.65-7.4,8.04-12.37Z"/><path class="cls-107" d="M581.43,1626.15c2.35-3.34-1.19-4.47-2.57-6.05-46.39-52.77-92.88-105.46-139.34-158.18-10.16-11.53-9.77-12.56,4.66-17.09,13.37-4.19,26.65-8.68,39.95-13.1,4.09-1.36,8.29-2.7,9.92-7.41,2.4,.2,4.74,.8,7.12,1.15,1.97,.4,3.93,.84,5.12,2.72-20.9,10.56-43.71,16.05-66.91,24.67,11.69,13.48,22.66,26.26,33.77,38.91,36.92,42.05,73.89,84.06,110.85,126.07,3.08,3.5,6.76,6.67,6.19,12.03-2.92-1.25-5.84-2.49-8.77-3.74Z"/><path class="cls-91" d="M675.08,2040.67c-2.19,.86-5.16-.56-6.66,2.3-15.48-8.42-32.52-12.91-48.89-19.01-54.79-20.42-109.79-40.29-164.66-60.51-14.25-5.25-22.88-14.62-20.87-31.04,1.34-10.96-2.59-22.29,2.26-33.02,3.4,.45,7.21,.2,8.26,4.75-2.09,11.85-.78,23.79-1.04,35.69-.18,8.24,5.34,12.21,11.68,15.44,11.65,5.93,24.13,9.76,36.36,14.24,57.76,21.14,115.69,41.81,173.33,63.26,4.01,1.49,9.57,1.76,10.23,7.9Z"/><path class="cls-20" d="M1181.31,2400.92c2.46-4.66-.94-7.95-2.56-11.78-7.52-17.82-17.47-34.31-20.58-54.32-2.97-19.1,.13-36.49,5.2-54.21,4.26-14.89,8.37-29.84,13.32-44.5,2.48-7.35,1.27-11.99-5.97-14.83,7.22-.43,8.58-8.87,14.73-10.77,.24,23.25-7.48,44.84-14.89,66.26-12.75,36.9-8.54,71.31,11.07,104.69,4.8,8.18,9.91,16.75,10.47,26.83-2.89-3.48-4.92-8.24-10.8-7.36Z"/><path class="cls-17" d="M1352.75,209.06c-17.06,13.35-37.09,21.72-55.51,32.8-33.03,19.86-65.69,40.28-97.88,61.47-2.7,1.77-4.99,5.91-9.65,2.53,2.35-6.33,8.53-8.5,13.39-11.72,42.59-28.3,86.26-54.86,130.94-79.72,2.99-1.66,7.06-2.39,7.35-6.98,3.63,1.62,7.39,2.36,11.36,1.63Z"/><path class="cls-88" d="M1772.08,976.69c-2.4,6.27-10.04,1.02-13.06,5.94-3.23-5.58,.82-9.7,3.11-13.93,26.43-48.78,49.97-98.82,67.56-151.54,6.65-19.93,12.22-40.15,16.71-60.67,.76-3.48,.81-7.26,3.4-10.16,1.58-.86,3.16-1.73,4.74-2.59-1.91,26.78-10.13,52.06-18.65,77.22-17.25,50.92-39.8,99.49-65.22,146.79-1.38,2.57-8.27,7.52,1.42,8.94Z"/><path class="cls-76" d="M1002.8,2309.75c-2.06-8.7-7.95-15.41-13.37-21.73-9.41-10.97-11.14-23.75-12.16-37.03-2.54-32.98-8.27-65.66-9.53-98.76-.14-3.56-2.93-5.69-3.66-8.81,1.11-2.01,2.52-1.84,4.09-.57,3.84,1.86,4.3,5.37,4.68,9.09,2.84,27.97,6.37,55.88,8.46,83.91,1.81,24.3,7.75,46.57,24.36,65.15,2.27,2.53,5.47,5.07,3.76,9.36-2.2-.2-4.41-.4-6.61-.6Z"/><path class="cls-6" d="M709.98,337.52c-1.43-1.47-2.86-2.93-4.29-4.4-8.62-5.8-16.88-12.03-24.18-19.47,1.5-1.44,3-2.88,4.49-4.31-.39-7.37,4.18-10.17,10.47-11.39,6.76,.87,3.27-6.82,7.04-8.44,7.18,.37,10.39,5.31,12.82,11.15,.91,2.38,4.56,2.8,4.29,6.02-.57,11.31-2.54,22.13-10.64,30.84Z"/><path d="M2249.98,2846.61c-58.41-30.71-116.93-61.21-175.11-92.35-9.9-5.3-20.18-11.4-24.78-22.98l-.18,.18c17.92,14.47,37.76,25.8,58.16,36.4,48.37,25.13,96.44,50.83,144.63,76.3-.32,1.47-1.75,1.71-2.73,2.45Z"/><path class="cls-97" d="M1565.5,180.78c18.57-5.06,37.93-4.92,56.71-8.56,5.75-2.72,11.51-4.43,17.35-.21,3.65,0,7.29,.02,10.94,.03,5.04-2.19,10.09-3.88,15.13,0,6.35-.22,12.96,2.67,18.98-1.58,6.02,6.18,12.93,9.85,21.99,8.98,3.43-.33,6.98,.87,9.58,3.66-27.9-2.09-55.73-5.83-83.82-3.93-18.61,1.26-37.21,2.65-55.81,3.99-3.56-1.32-8.06,1.69-11.03-2.37Z"/><path class="cls-101" d="M2012.04,1021.44c-1.26,.17-2.53,.35-3.79,.52-4.83,.48-8.12-2.58-11.37-5.31-32.65-27.29-70.29-42.82-112.32-48.3-3.91-.51-9,.72-10.68-4.95,1.47-.72,2.93-1.44,4.4-2.15,22.91,.85,44.65,7.1,65.53,15.85,25.32,10.61,48.73,24.57,68.23,44.34Z"/><path d="M2562.82,2431.55c26.02,14.13,52.03,28.27,78.05,42.4-.64,1.18-1.29,2.37-1.93,3.55-25.48-14.28-50.95-28.56-76.43-42.84-.83-1.13-.73-2.17,.31-3.12Z"/><path class="cls-56" d="M1895.39,1410.29c.84,.68,1.67,1.36,2.51,2.04-27.4,5.56-54.8,5.62-82.2-.04-.01-2.54,1.89-3.25,3.78-3.98,11.91-1.8,23.59,2.18,35.54,1.35,9.33-.65,18.73,.05,28.04-1.56,4.25-.74,8.67-1.03,12.33,2.19Z"/><path d="M2367.03,2348.69c2.28-1.32,4.56-2.64,6.84-3.97,24.69-1.21,46.85,6.22,67.22,19.74,.53,1.85,.2,2.85-1.99,2-22.17-13.43-46.12-19.65-72.07-17.76Z"/><path d="M2439.1,2366.45c.66-.66,1.33-1.33,1.99-2,19.66,10.78,39.31,21.57,58.97,32.35-.25,1.36-1.55,1.58-2.44,2.23-19.5-10.86-39.01-21.73-58.51-32.59Z"/><path class="cls-80" d="M1818.24,1410.31c-.85,.66-1.69,1.32-2.54,1.98-21.58-3.53-42.22-9.83-61.15-21.07,1.43-.63,2.87-1.27,4.3-1.9,2.58-1.86,4.82-.23,7.02,.81,13.4,6.38,27.25,11.29,41.87,14.14,3.96,.77,8.94,.68,10.5,6.03Z"/><path class="cls-75" d="M926.56,1708.54l-.66,.3-.63-.37c-8.72-17.41-12.44-36.6-19.5-54.6,.6-1.02,.73-2.41,2.14-2.81,7.37,18.79,14.72,37.58,18.64,57.48Z"/><path d="M2249.98,2846.61c.91-.82,1.82-1.64,2.73-2.45,13.62,7.09,27.23,14.18,40.85,21.27-.54,1.06-1.07,2.13-1.61,3.19-13.99-7.33-27.98-14.67-41.96-22Z"/><path d="M2497.62,2399.04c.81-.74,1.63-1.49,2.44-2.23,12.2,6.62,24.41,13.24,36.61,19.86,.17,2.27-.62,3.31-2.98,2.33-12.02-6.65-24.05-13.31-36.07-19.96Z"/><path class="cls-95" d="M907.92,1651.06c-.71,.94-1.43,1.87-2.14,2.81-3.29-9.65-7.07-19.18-9.67-29.01-1.33-5.04-3.94-5.98-8.18-5.75,2.95-1.4,5.9-2.79,8.86-4.19,3.71,12.05,7.42,24.1,11.13,36.15Z"/><path d="M2533.69,2419c.99-.78,1.99-1.55,2.98-2.33,8.72,4.96,17.44,9.91,26.15,14.87-.1,1.04-.21,2.08-.31,3.12-9.61-5.22-19.22-10.44-28.82-15.66Z"/><path class="cls-69" d="M1578.97,1246.87c-2.05-7.35,2.03-10.7,4.01-14.75,.96,5.03,.39,9.55-4.01,14.75Z"/><path class="cls-97" d="M1759.55,196.23c-5.83-.79-11.82-1.19-15.83-6.45,5.72,1.06,11.49,1.99,15.83,6.45Z"/><path class="cls-97" d="M1733.22,187.23c-5.76,.52-10.98-1.14-15.92-3.92,5.69-.28,11.56-1.24,15.92,3.92Z"/><path class="cls-17" d="M1361.3,204.13c-1.65,3.77-5.09,4.43-8.6,4.97,1.44-4.14,5.17-4.3,8.6-4.97Z"/><path class="cls-20" d="M1193.89,2412.26c4.03,1.54,5.5,4.43,4.51,8.61-1.86-2.68-4.3-5.06-4.51-8.61Z"/><path d="M2050.1,2731.27c-3.05-.5-3.95-3.28-5.27-5.6,2.64,.99,5.04,2.22,5.09,5.78,0,0,.18-.18,.18-.18Z"/><path class="cls-97" d="M1743.8,189.81c-3.82,.18-7.78,.89-10.69-2.63,3.78-.02,7.74-.75,10.69,2.63Z"/><path class="cls-68" d="M987.84,1901.53c9.1,29.95,21.41,58.82,29.08,89.29,3.34,13.27,15.09,21.36,26.71,27.09,27.43,13.52,56.82,20.03,87.31,23.06,21.31,2.12,42.59,2.79,63.82,1.76,36.82-1.79,73.26-6.45,106.97-23.07,16.02-7.89,27.74-18.52,33.02-37.28,9.08-32.24,20.93-63.7,31.61-95.48,14.31,1.84,28.57,4.4,42.93,5.33,33.21,2.16,64.32,11.81,95.3,23.31,79.17,29.39,158.7,57.8,238.04,86.7,57.63,20.99,115.2,42.13,172.77,63.28,4.38,1.61,8.54,3.85,12.8,5.8,5.08,4.76,14.27,6.86,11.03,17.01h0c-5.05,9.55-13.4,14.85-23.24,18.35-66.78,23.74-133.22,48.4-199.76,72.81-8.78,3.22-14.99,1.72-21.4-4.7-31.34-31.38-66.36-58.05-104.6-80.5-13.47-7.91-27.36-14.51-43.04-17.13-7.1-1.18-12.83-.35-17.82,4.8-1.07,1.06-2.21,2.06-3.33,3.07-2.92,2.48-5.3,5.39-7.01,8.85-3.49,5.78-8.83,10.13-12.29,15.94-2.1,5.7-1.72,11.39,.05,17.08,.94,2.47,2.19,4.77,3.36,7.13,13.32,25.33,33.09,45.42,53.27,65.07,6.19,6.03,12.57,11.93,19.07,17.67,5.9,5.22,5.26,9.26-2.25,11.88-31.65,11.02-61.97,26.75-95.6,30.98-34.84,4.38-68.92,.37-101.97-12.95-28.76-11.59-57.96-22.18-87.39-32.04-6.57-2.2-12.64-5.26-18.52-8.81-8.89-8.99-17.96-17.73-30.37-21.83-11.34-3.65-23.08-5.26-34.87-5.26-9.56,0-18.5-1.5-27.46-4.81-66.02-24.39-132.27-48.11-198.38-72.26-32.89-12.01-65.64-24.43-98.74-35.83-3.45-1.19-6.78-2.46-9.71-4.66-29.13-9.25-57.68-20.17-86.4-30.58-33.25-12.06-66.48-24.13-99.79-36.03-3.37-1.2-6.74-2.66-9.77-4.59-2.98-1.91-2.57-4,.44-5.67h0c3.37-2.04,7.32-2.66,10.84-4.32,73.92-30.29,150.2-52.8,228.38-68.88,19.37-3.98,38.67-8.85,58.56-9.9,2.81-.81,5.61-1.37,8.32,.31Z"/><path class="cls-31" d="M1932.53,2149.59c-3.56,7.99-11.61,9.34-18.5,11.86-94.59,34.55-189.25,68.92-283.9,103.31-38.65,14.05-77.26,28.24-116.01,42-22.44,7.97-45.61,9.4-69.1,5.73,9.81-3.75,11.88-11.14,11.34-20.98-.47-8.73-1.87-17.8,1.78-26.35,.73-1.03,1.74-1.46,2.99-1.32,6.22,5.44,5.13,12.93,5.45,19.97,.23,5.01-.1,10.03-.17,15.05-.04,3.13-2.43,8.45,3.23,8.34,4.71-.09,3.77-5.32,3.91-8.67,.29-6.8-.16-13.63,.16-20.42,.3-6.16-2.2-10.27-7.58-12.91-1.6-5.61,2.91-4.99,5.68-4.95,26.37,.35,50.12-9.68,74.12-18.57,43.01-15.94,86.03-31.85,129.22-47.28,40.46-14.46,80.67-29.6,121.12-44.06,42.17-15.07,84.06-30.89,126.3-45.76,3.24-1.14,6.7-3.59,9.7,.58,2.78,14.8,2.31,29.62,.26,44.45Z"/><path class="cls-12" d="M1459.74,2264.7c-.16,10.68-.4,21.37-.46,32.05-.08,14.95-.02,14.95-14.28,15.75-30.06,.57-56.53-12.56-83.92-22.13-22.39-7.82-44.64-16.08-66.94-24.14-5.3-.7-5.34-4.31-5.47-8.63-.36-12.08,2.25-24.47-3.28-36.08-1.51-2.85-4.38-5.11-3.82-8.86,4-3.57,7.52-.09,10.96,1.05,36.9,12.25,73.06,26.57,109.72,39.5,15.1,5.33,30.88,6.24,46.55,8.01,3.86,.44,8.06-.09,10.95,3.47Z"/><path class="cls-60" d="M1459.74,2264.7c-55.66-.56-103.69-27.88-154.87-44.15-7.81-2.49-15.54-5.25-23.3-7.88-1.6-2.27-3.2-4.54-4.81-6.82,18.02,3.88,34.7,11.74,52.01,17.71,22.46,7.75,44.56,16.55,67.02,24.3,42.84,14.78,85.65,14.23,128.24-1.41,18.28-6.72,36.57-13.41,54.93-19.92,5.82-2.07,6.8-3.44,1.41-8.12-25.15-21.8-48.76-45.12-67.16-73.15-2.33-3.55-3.97-7.55-5.93-11.34,.56-1.53,1.44-2.66,3.24-2.68,9.27,6.41,12.14,17.94,20.19,25.33,16.77,19.34,33.96,38.21,53.55,54.87,6.52,5.55,12.18,6.82,19.44,2.91,5.05-2.72,11.02-3.31,17.16-7.3-25.56-22.16-51.24-43.52-71.69-70.09-8.28-9.99-13.99-21.88-23.03-31.33,.57-4.18,3.87-4.51,7.04-5.05,3.67,.52,5.44,3.4,7.15,6.12,22.01,35.07,51.71,62.9,83.23,89.12,7.24,6.02,14.01,7.35,22.83,3.7,13.01-5.38,26.56-9.39,39.76-14.34,6.8-2.55,7.79-5.57,2.19-10.5-22.52-19.79-44.65-40.09-69.72-56.71-17.17-11.38-34.62-22.31-53.75-30.26-3.35-1.39-6.72-2.63-10.22-3.58q-15.96-4.33-22.98,10.33c-.29,.6-1.08,.83-1.84,.97-5.77-3.47-2.84-9.15-3.56-13.9,5.61-11.01,17.91-9.85,34.26-3.93,36.11,13.08,66.5,35.89,96.28,59.42,14.75,11.65,28.6,24.35,41.9,37.63,4.24,4.23,7.74,5.4,14.16,3.02,65.93-24.39,132.02-48.32,198.19-72.04,10.75-3.85,20.32-8.98,28.17-17.24,.53,2.94-1.93,5.86-.07,8.81-1.56,4.16-4.94,5.86-8.98,6.66-39.83,14.82-79.6,29.81-119.51,44.42-51.41,18.82-102.94,37.28-154.38,56.01-48.01,17.48-95.89,35.31-143.99,52.52-14.64,5.24-30.24,6.1-45.72,6.82-1.37,2.14-3.18,2.15-5.22,1.09l-.81-.27-.81,.25Z"/><path class="cls-12" d="M1185.45,2210.5c-3.48,5.55-3.44,15.92-14.73,10.77-24.26-8.9-48.42-18.08-72.84-26.52-6.76-2.33-9.77-6.11-10.95-12.78-3.62-20.52-14.84-36.18-31.62-48.12-1.71-.9-3.31-2.32-1.78-4.09,2.23-2.58,5.12-1.52,7.97-.57,12.94,4.3,25.72,9.09,38.43,13.95,29.52,11.29,59.49,21.34,89.1,32.38,6.34,2.36,12.56,4.56,4.75,12.29-3.73,7.21-7.16,14.54-8.32,22.7Z"/><path class="cls-108" d="M1193.78,2187.8c4.78-6.72-.49-8.09-5.2-9.78-39.56-14.25-79.13-28.49-118.67-42.78-4.39-1.59-8.55-3.96-13.04-5.06-4.69-1.15-1.33,2.27-1.56,3.67-14.75-11.29-33.52-10.75-49.97-17.01,2.37-2.97,5.36-.66,6.73-1-25.29-7.4-51.06-17.29-76.94-26.83-12.83-4.72-25.91-8.79-38.35-14.53-1.46-.67-2.77-.39-4.06,.41-8.35-1.95-13.07-8.55-18.42-14.35,.84-1.29,1.85-1.45,3.03-.46,52.07,16.86,102.99,36.89,154.4,55.58,55.45,20.15,110.79,40.65,166.53,59.96,10.88,3.77,23.4,2.83,35.17,4.04,4.65,.48,9.48,.41,12.97,4.34-7.39-.9-14.88-1.29-22.14-2.82-11.31-2.37-21.97-3.23-30.48,6.61Z"/><path class="cls-9" d="M1188.76,2259.37c9.34-3.65,17.88,.31,26.57,1.66,9.34,1.45,15.59-1.83,19.48-9.76,5.38-10.96,10.19-22.19,15.31-33.28,2.82-6.11,1.09-10.17-4.98-13.03-9.16-4.33-18.25-8.42-28.75-8.2-5.25,.11-10.92,.49-14.44-5.04,16.04-4.89,46.42,4.33,55.37,15.22,2.53,3.09,1.49,5.84,.04,8.97-5.59,12.02-11.05,24.11-16.45,36.22-4.61,10.35-12.04,15.83-23.79,14.7-9.85-.95-19.46-2.59-28.37-7.46Z"/><path class="cls-90" d="M1286.72,2338.4c7.48-4.46,13.77-.48,20.09,1.43,33.76,10.2,68.49,8.94,103.1,9.61,4.55,.09,12.91-2.58,12.79,3.51-.12,6.18-8.31,2.9-12.78,2.85-24.54-.29-49.11-1.44-73.53-3.16-16.91-1.19-33.96-6.43-49.67-14.24Z"/><path class="cls-83" d="M1285.39,2221.52c8.07,9.97,4.1,21.64,4.43,32.65,.14,4.68-.54,9.25,4.32,12.07-5.61,1.58-3.73,6.27-3.81,9.84-.35,15.49,.04,31.04-2.77,46.36-2.36,12.87-8.29,23.67-19.41,31.09-2.22,1.48-5.24,4.28-7.41,.72-1.62-2.67,1.33-4.2,3.6-5.55,12.31-7.36,17.39-19.69,18.16-32.66,1.28-21.55,1.32-43.16,4.92-64.55,1.7-10.06-.07-20.06-2.03-29.97Z"/><path class="cls-49" d="M1930.17,2103.85c2.24-3.25,5.56-5.02,8.99-6.66,0,0,.15,.22,.15,.22,1.8,15.01,1.74,30.02,.04,45.03-2.35,2.3-3.24,6.01-6.81,7.16-4.15-10.37-.91-21.18-1.87-31.75-.42-4.64-.35-9.32-.5-13.99Z"/><path class="cls-78" d="M1585.3,1904.89c.68-4.45-1.11-8.98,3.32-9.55,4.25-.55,4.92,3.55,4.79,6.91-.52,13.46,3.52,25.53,10.77,36.68,1.15,1.77,3.18,3.88,.63,5.48-2.58,1.61-4.5-.38-6.18-2.58-8.65-11.36-9.61-25.3-13.31-36.94Z"/><path class="cls-112" d="M1760.73,1978.79c.46,4.31,.84,8.63,1.42,12.92,.29,2.13,1.26,4.64-1.63,5.36-3.07,.77-5.06-1.65-5.2-4.16-.46-8.27-.46-16.58-.46-24.87,0-2.01,1.43-3.32,3.58-3.01,2.19,.31,2.77,2.09,2.82,3.98,.08,3.25,.02,6.5,.02,9.75-.18,0-.37,.01-.55,.02Z"/><path class="cls-103" d="M1328.82,2373.21c.17-2.96-.33-7.22,2.78-6.37,7.67,2.08,2.32,10.07,5.35,14.76,1.36,2.11-.54,6.39-3.08,5.28-5.97-2.61-3.12-9.46-5.05-13.66Z"/><path class="cls-60" d="M1939.35,2142.43c-.02-15.01-.03-30.03-.04-45.04,3.66,15.01,3.34,30.02,.04,45.04Z"/><path class="cls-60" d="M1939.23,2088.36c.28-8.24-6.86-11.67-11.03-17.01,7.67,3.08,15.81,5.86,11.03,17.01Z"/><path class="cls-68" d="M1849.79,746.33c-1,21.08-7.95,40.82-14.06,60.68-17.41,56.62-42.68,109.86-70.68,161.89-2.36,4.39-4.04,9.14-6.04,13.73h0c-1.73,2.74-1.73,6.42-4.63,8.53-12.2,20.28-24.67,40.4-36.43,60.94-3.93,6.87-6.13,5.53-10.47,.66-7.33-8.22-13.47-17.56-22.32-24.39-14.7-20.05-32.25-37.65-48.54-56.32-47.93-54.92-96.08-109.66-144.39-164.25-4.28-4.84-4-7.98-.74-13,23.96-36.88,45.34-75.25,65.3-114.43,16.9-36.09,33.45-72.37,46.94-109.88,7.88-21.92,15.41-44.11,18.56-67.41,.25-1.86,.76-3.5,2.22-4.74,7.64-34.53,9.54-69.09-.77-104.78,20.61,13.61,26.8,32.73,28.79,54.32,1.63,17.71,1.27,35.41-.15,53.01-1.15,14.34,2.4,26.03,12.6,36.3,7.59,7.64,14.11,16.34,21.1,24.57-.89,2.74-3.07,3.45-5.61,3.59-4.57-.21-7.79-3.43-11.64-5.26-11.42-5.43-20.71-2.36-25.46,9.39-5.01,12.41-4.06,25.39-.96,38.1,1.29,5.28,2.41,10.48,2.36,15.91,.35,10.56,3.3,20.48,7.37,30.12,5.73,14.22,11.19,28.55,17.58,42.49,.85,3.23,.49,6.83,2.98,9.56,.55,.82,.98,1.69,1.34,2.61,2.43,9.11,6.25,17.5,12.67,24.56,13.75,24.17,28.3,47.82,46.2,69.21,12.05,14.41,24.98,27.89,43.07,34.73,9.66,3.65,14.9,1.61,19.6-7.56,7.01-13.7,4.75-28.16,2.28-42.41-10.68-61.59-37.23-116.49-71.35-168.15-1.4-2.11-2.63-4.32-3.35-6.79-.36-2.28-.31-4.39,2.34-5.35,38.2,43.23,76.39,86.46,114.61,129.67,3.1,3.5,6.45,6.77,9.68,10.15Z"/><path class="cls-67" d="M1800.05,433.24c10.14,16.35,24.38,29.27,36.79,43.7,24,27.9,48.59,55.28,72.8,83,5.16,5.91,9.74,12.33,14.58,18.52,0,0,.01,.03,.01,.03,5.44,8.94,9.42,18.54,12.83,28.4,2.94,11.55,5.89,23.09,8.83,34.64-1.09,21.27,4.18,42.49,.44,63.78-.23,1.31-.41,2.63-.8,5.13-25.99-29.43-51.29-57.98-76.49-86.63-46.03-52.34-91.91-104.82-138.13-157.01-5.2-5.88-7.52-11.61-7.06-19.43,1.19-20.22,1.81-40.49-1.69-60.59-.36-2.06-1.38-4-2.1-6-.88-10.4-4.16-20.28-6.69-30.32-2.37-5.02-3.18-10.67-6.13-15.46-.18-.61-.34-1.22-.47-1.84-.4-.95-.55-2.06,.6-2.37,1.96-.53,2.92,.94,3.78,2.38,29.63,33.35,59.26,66.7,88.88,100.05Z"/><path class="cls-100" d="M1543.8,491.93c-3.06-.18-6.13-.36-9.2-.53,1.12-3.86-1.67-6.06-3.75-8.44-60.48-68.81-121-137.59-181.51-206.37-2.14-2.43-4.21-4.93-6.45-7.27-4.64-4.85-4.38-7.85,2.16-11.31,33.81-17.91,68.99-32.71,104.8-45.91,33.37-12.3,67.45-22.44,102.47-29.13,4.17-2.39,9.29,1.02,13.32-2.19,0,0-.13,0-.13,0,3.61,1.1,7.96-1.26,11.03,2.37-4.35,3.47-9.5,2.54-14.46,2.62-5.31,1.17-10.59,2.51-15.92,3.61-66.99,15.36-130.61,39.95-192.31,69.91-6.99,3.39-7.24,6.36-2.43,11.81,56.83,64.34,113.68,128.66,170.17,193.29,7.73,8.84,17.44,16.25,22.21,27.54Z"/><path class="cls-26" d="M1553.93,253.32c42.27,48.2,82.77,94.39,125.15,142.71-8.12,.07-10.1-3.36-12.56-6.16-38.38-43.64-76.8-87.24-115.12-130.94-1.98-2.26-5.85-4.23-4.3-8.02,1.54-3.76,5.53-2.7,8.66-2.83,43.05-1.77,83.15,6.34,117.06,35.08,3.54,3,3.5,3.05,5.38,10.99-34.61-32.26-76.23-42.32-124.27-40.83Z"/><path class="cls-62" d="M1624.51,498.32c.75,15.52-5.07,29.77-9.4,44.12-14.3,47.39-33.92,92.66-56.72,136.56-.3,.58-1.06,.91-1.61,1.36,.18-6.23,3.14-11.4,6.44-16.37,2.97-4.46,2.95-8.28-1.64-11.56,4.06,1.18,5.48-1.19,7.02-4.48,21.18-45.14,39.31-91.36,50.85-140.03,2.01-8.5-1.47-8.97-7.9-7.25,3.56-4.95,7.83-5.98,12.94-2.34Z"/><path class="cls-37" d="M1681.04,563.37c1.67-.55,3.35-1.1,5.03-1.64,14.08,14.12,27.19,29.07,39.43,44.77-.51,1.37-1.01,2.75-1.51,4.13-5.92,.63-7.52-4.53-10.44-7.86-9.76-11.15-18.62-23.11-30.32-32.46-2.12-1.7-5.15-3.48-2.21-6.95Z"/><path class="cls-62" d="M1589.63,511.36c-3.16,3.52-8.11,4.06-11.62,6.77-7.52,5.81-12,3.64-14.85-4.64,5.38,4,10.81,3.78,16.55,.59,3.01-1.68,6.02-4.01,9.93-2.72Z"/><path class="cls-62" d="M1611.54,500.68c-6.38,5.36-13.88,8.43-21.81,10.63,5.72-6.73,13.46-9.3,21.81-10.63Z"/><path class="cls-79" d="M1711.17,333.18c-1.46-.51-2.91-1.97-4.38-.01-2.89-1.87-4.22-4.35-3.04-8.51,4.31,1.58,7.61,3.4,7.42,8.52Z"/><path class="cls-79" d="M1707.26,335.01c4.84,4.04,5.69,9.67,6.13,15.46-4.11-4.33-5.11-9.9-6.13-15.46Z"/><path class="cls-97" d="M1546.15,189.38c4.85-3.21,10.1-4.63,15.92-3.61-4.81,3.4-10.16,4.38-15.92,3.61Z"/><path class="cls-100" d="M1552.95,502.72c-4.17-2.69-8.14-5.56-9.23-10.87,4.52,2.39,7.89,5.77,9.23,10.87Z"/><path class="cls-68" d="M1248.55,1414.99c3.56,5.05,1.14,8.02-3.02,11.5-50.93,42.52-103.05,83.51-156.53,122.79-35.47,26.05-71.76,50.91-108.11,75.71-7.44,5.08-11.37,4.01-16.93-2.28-9.01-10.19-16.6-21.76-27.83-29.89,0,0-.02-.03-.02-.03-2.72-2.36-4.35-5.68-7.08-8.03-7.24-8.06-14.49-16.11-21.73-24.17-7.84-3.29-11.3-11.01-16.45-16.87-41.72-47.47-83.73-94.69-125.28-142.3-4.53-5.19-7.78-11.32-12.33-16.48-7.56-6.88-7.57-12.71,2.57-16.75,5.66-2.26,8.34-8.88,14.82-9.8,7.65-8.93,17.94-14.51,27.49-20.84,17.71-11.72,33.76-25.89,52.78-35.65,61.98-44.71,122.23-91.62,180.12-141.54,11.3-13.31,25.45-23.53,38.37-35.05,40.47-36.1,80.2-72.92,117.99-111.88,18.59-19.17,37.75-37.76,55.7-57.59,16.96-18.73,33.41-37.86,49.34-57.44,6.28-7.72,9.9-8.06,16.39-.74,.72,.81,1.24,1.78,1.94,2.61q10,11.95,.81,23.69c-73.36,86.76-153.85,166.41-239.63,240.81-.55,.47-1.01,1.03-1.55,1.51-18.41,16.38-19.01,20.59-5.81,40.91,4.68,12.19-2.13,23.34-3.61,34.88-7.24,56.46-3.67,111.11,23.86,162.3,8.7,16.17,20.25,30.12,36.46,39.18,17.04,9.51,34.24,9.09,51.31-1.04,16.76-9.94,27.88-24.7,37.25-41.21,3.35-5.89,4.77-12.99,10.64-17.34,9.36,10.34,18.72,20.67,28.08,31.01Z"/><path class="cls-44" d="M902.68,1562.52c-19.93,29.19-47,41.74-76.51,35.11-15.78-3.55-28.39-12.64-38.61-24.75-32.2-38.13-41.14-83.54-39.93-131.78,.31-12.24,2.53-24.42,3.88-36.63,1.96-3.46-1.33-8.94,4.24-11.01l-.15,.1c3.81-1.19,4.88,2.16,6.65,4.15,31.29,35.2,62.22,70.71,93.43,105.98,13.11,14.81,25.81,29.98,39.27,44.48,3.72,4.01,8.71,7.68,7.74,14.36Z"/><path class="cls-66" d="M1025.11,1156.06c3.66,1.26,6.14-.76,8.66-2.96,50.63-44.1,100.39-89.12,147.77-136.74,6.71-6.74,6.08-13.87,6.36-21.7,1.82-50.74-11.82-96.93-40.66-138.63-15.77-22.8-35.61-41.54-58.21-57.45-2.04-1.43-3.89-3.13-5.83-4.7,2.06-3.34,4.68-5.65,8.98-4.81-.38,4.09,.47,6.84,4.43,9.72,45.41,32.97,75.59,76.54,89.41,131.09,4.99,19.68,7.05,39.75,6.73,60.06-.07,4.21,0,8.43,0,12.68,3.78,.81,5.11-2.16,7.05-4.13,33.1-33.78,64.55-69.04,94.45-105.68,4.86-5.95,7.74-7.04,12.75-.33,5.34,7.16,12.64,12.78,17.15,20.7-6.17,1.3-6.61,9.28-12.59,10.8-.14-5.11,8.24-7.31,5.8-11.79-3.36-6.19-8.83-11.33-13.81-16.52-4.47-4.66-6.36,.84-8.19,3.11-22.27,27.58-45.92,53.95-70.12,79.8-59.08,63.09-122.21,121.95-187.73,178.28-1.82,1.57-4.3,2.37-6.47,3.52-1.33-2.31-5.77-.36-5.9-4.31Z"/><path class="cls-18" d="M738.54,1310.62c2.06,.18,4.12,.36,6.17,.55-10.82,15.16-28.5,20.2-43.63,28.56-47.25,26.1-96.05,49.13-145.87,69.94-1.94,.81-4.19,.87-6.29,1.27-1.19-3.24,1.62-4.57,3.1-6.55,6.09-5.6,14.25-7.27,21.24-11.18,13.78,.29,24.37-8.36,35.95-13.62,41.01-18.63,80.79-39.78,120.08-61.81,3.35-1.88,7.48-3.1,9.25-7.16Z"/><path class="cls-54" d="M902.68,1562.52c-5.03-10.26-13.84-17.49-21.15-25.86-41.79-47.87-83.92-95.44-125.94-143.11-.79-2.87-1.58-5.73-2.36-8.6,16.97,15.61,30.92,33.94,46.16,51.11,34.63,39.01,68.9,78.33,103.26,117.58,1.82,2.08,4.47,3.74,4.64,6.97-1.54,.64-3.08,1.28-4.62,1.92Z"/><path class="cls-47" d="M770.84,1349.71c12.79-19.17,26.89-36.94,49.44-45.52,5.3-2.46,10.8-3.89,16.7-3.24,2.01,.22,4.78-.8,5.47,1.99,.57,2.31-1.37,3.88-3.12,5.27-15.2,12.19-31.64,22.62-47.78,33.47-4.78,3.21-8.84,7.45-14.15,9.88-2.75,1.25-5.7,3.46-6.56-1.85Z"/><path class="cls-99" d="M903.15,1208.46c-4.85-6.28-12.74-5.78-19.2-8.21-36.44-13.73-67.28-35.33-92.9-64.51-1.5-1.71-2.91-3.07-5.16-3.42,2.54-2.81-.32-5.45-.24-8.19,16.08,16.28,31.39,33.31,50.6,46.3,20.71,14,43.23,23.84,66.91,31.26,2.6,.82,5.67,.15,8.53,.17-.91,4.7-5.68,4.41-8.53,6.6Z"/><path class="cls-84" d="M770.84,1349.71c3.03,3.75,5.2,.2,7.16-1.16,21.21-14.64,42.31-29.44,64.31-44.81-8.18-4.57-15.07,.71-22.04,.45,9.64-8.2,20.26-3.44,30.6-2.28-18.26,16.72-39.62,29.21-59.66,43.48-6.57,4.68-12.57,10.54-20.61,13-.96-2.92-3.73-5.89,.23-8.68Z"/><path class="cls-27" d="M553.88,1405.97c-1.65,1.66-3.31,3.32-4.96,4.97-14.21,5.75-28.43,11.5-42.63,17.25-2.62-.13-5.25-.26-7.87-.38-.97-3.04,.48-5,3.14-5.92,14.33-5.01,27.75-12.24,42.12-17.13,3.52-1.2,7.09-1.53,10.22,1.21Z"/><path class="cls-92" d="M929.03,1584.77c3.85,1.37,5.89,4.32,7.08,8.03-3.59-1.59-6.54-3.75-7.08-8.03Z"/><path class="cls-54" d="M755.74,1393.45c-1.41,3.67-2.82,7.34-4.24,11.01,.42-4.05-3.4-9.74,4.24-11.01Z"/><path class="cls-44" d="M637.85,736.7c-9.06-9.06-21.39-12.99-31.63-20.19-3.63-2.55-9.29-3.97-8.27-9.98,.89-5.23,5.51-7.22,9.99-8.88,25.29-9.35,50.58-18.68,75.88-28.02,20.95-7.41,41.89-14.82,62.84-22.23,10.37-7.73,23.1-9.79,34.85-14.03,38.61-13.96,77.25-27.81,116-41.38,3.77-1.32,7.63-2.13,11.65-2.03,78.62-27.66,157.39-54.94,235.78-83.23,23.88-8.62,44.46-7.43,66.72,6.34,50.03,30.95,101.43,59.7,152.27,89.34,13.01,5.38,24.8,13,36.57,20.52,6.77,4.32,5.85,11.98-1.72,16.55-12.15,7.32-26.11,10.26-39.3,15.01-52.85,19.01-105.88,37.5-158.78,56.35-16.96,6.05-34.41,10.8-50.59,18.92-2.43,1.26-4.98,2.24-7.61,3-4.67,.98-9.23,2.29-13.38,4.77-28.78,10.59-57.66,20.9-86.68,30.81-5.06,1.33-9.95,.88-14.85-.96-20.54-7.72-42.6-10.49-63.71-9.94-45.85,1.2-89.62,12.5-127.85,39.89-11.15,7.98-21.95,16.38-31.84,25.87-3.45,3.32-6.99,4.93-11.67,3.63-48.28-28.65-96.28-57.8-145.67-84.55-3.1-1.68-6-3.71-9-5.57Z"/><path class="cls-12" d="M855.1,46.48c-1.21-3.14-2.43-6.27-4.55-11.77,22.73,13.19,43.47,25.16,64.16,37.23,47.36,27.62,94.66,55.36,142.06,82.91,21.03,12.23,33.58,32.42,48.26,50.62,21.94,27.2,41.69,56.14,65.15,82.14,0,0,.02,.02,.02,.02,2.15,2.92,4.96,5.36,6.39,8.8,55.83,71.86,111.66,143.72,167.47,215.59,18.33,23.6,36.6,47.23,54.9,70.85,5.23,2.88,7.32,8.65,11.5,12.54,1.79,1.67,3.22,4.29,1.25,6.72-1.92,2.37-4.58,1.75-6.81,.3-8.4-5.45-17.77-9.25-25.86-15.2-32.55-19.28-65.07-38.62-97.66-57.83-22.08-13.02-44.16-26.06-66.46-38.71-18.21-10.32-33.38-23.96-46.17-40.37-20.79-26.67-41.45-53.44-62.23-80.12-.85-1.09-2.27-1.72-3.42-2.57l.13,.13c-6.46-8.76-12.91-17.52-19.37-26.29-14.88-13.83-25.3-31.27-37.75-47.05-5.04-6.39-11.47-11.94-14.11-20.07-37.06-47.88-74.08-95.8-111.19-143.64-21.83-28.14-43.8-56.16-65.71-84.23Z"/><path class="cls-68" d="M709.98,337.52c3.55-10.28,7.09-20.56,10.64-30.84,8.06-9.22,9.81-21.29,13.92-32.17,26.14-69.27,51.73-138.74,77.53-208.13,1.25-3.37,2.64-6.72,4.28-9.91,5.87-11.46,11.1-13.19,23.67-8.02,0,0,.11,.25,.11,.25,1.96,4.83,2.49,10.08,4.37,14.93,7.29,23.83,14.4,47.71,22,71.44,2,6.24,1.73,11.78-.52,17.79-45.1,120.76-90.13,241.55-135.12,362.36-17.27,46.37-34.37,92.81-51.55,139.22-4.79,19.13-22.53,19.84-36.62,25.45-12.05,4.8-24.47,8.67-36.63,13.21-2.98,1.11-5.84,2.91-8.3,4.95-7.99,6.61-10.65,5.84-13.51-4.38-2.4-8.59,.69-16.62,3.52-24.27,39.72-107.24,79.71-214.37,119.52-321.58,1.22-3.28,3.73-6.37,2.7-10.3Z"/><path class="cls-68" d="M748.92,632.88c25.34-67.95,50.72-135.88,76.02-203.85,22.43-60.23,44.75-120.51,67.25-180.71,1.05-2.82,1.41-6.29,5.85-9.17,4.23,13.44,8.34,26.29,12.3,39.18,15.81,51.42,31.51,102.88,47.4,154.28,2.02,6.52,1.8,12.35-.67,18.86-15.24,40.18-30.08,80.52-45.04,120.81-2.21,3.99-1.89,8.9-4.62,12.7v.03c-2.93,7.17-10.4,7.76-16.06,9.68-45.21,15.3-89.94,31.97-134.93,47.86-2.83,1-5.89,1.91-8.25-.05-3.85-3.21,.31-6.39,.74-9.61Z"/><path class="cls-110" d="M1148.37,728.19c22.31-11.1,46.35-17.59,69.69-25.93,57.98-20.72,116.16-40.87,174.16-61.52,4.47-1.59,10.3-3.71,10.77-9.55,.45-5.58-5.22-7.39-8.97-9.85-9.9-6.49-21.01-11.08-30.08-18.92,3.05,.42,3.35-3.53,5.98-3.77,1.67,3.73,4.24,6.3,8.07,8.15,5.82,2.81,11.45,6.13,16.82,9.75,5.47,3.69,13.53,5.77,13.14,14.29-.43,9.37-8.8,12-15.64,14.5-35.13,12.84-70.43,25.21-105.72,37.62-40.39,14.21-80.84,28.27-121.23,42.49-4.01,1.41-7.79,3.46-11.68,5.22-2.18,.06-4.18-.28-5.31-2.47Z"/><path class="cls-25" d="M1103.1,367.63c-.35,5.78-4.69,8.75-8.6,11.89-10.99,8.8-21.73,17.98-33.26,26-7.38,5.13-6.11,8.42-.88,14.22,23.21,25.76,45.98,51.91,68.88,77.94,2.29,2.61,5.07,5.01,5.37,8.84-4.15,2.62-5.63-.7-7.33-2.62-25.17-28.38-50.32-56.77-75.3-85.3-2.66-3.04-6.37-6.85-1.16-11.06,17.07-13.79,32.64-29.56,52.43-39.78,0,0-.13-.13-.13-.13Z"/><path class="cls-106" d="M748.92,632.88c-.75,5.57-2.4,10.71,7.26,7.18,47.03-17.17,94.28-33.74,141.42-50.6,3.37-1.2,6.54-2.96,9.8-4.46,.59,1.65,1.19,3.3,1.77,4.96-20.1,9.82-41.75,15.4-62.64,23.04-30.09,11.01-60.32,21.62-90.53,32.3-2.99,1.06-6.23,1.42-9.34,2.1-3.83-5.55-1.68-10.18,2.26-14.52Z"/><path class="cls-111" d="M1076.95,341.58c-9.68-18.56-24.47-33.38-36.92-49.9-4.29-5.69-6.48-14.02-15.3-15.4,1.63-3.64,4.76-1.62,7.27-1.93,18.86,21.16,36.26,43.44,51.87,67.12-2.31,.03-4.61,.07-6.92,.1Z"/><path class="cls-110" d="M1379.03,587.22c11.86,1.92,19.81,11.99,33.28,15.84-5.14-7.77-9.25-13.99-13.36-20.2,.66-.7,1.33-1.4,1.99-2.1,4.18,4.91,9,9.43,12.3,14.88,2.1,3.47,7.85,7.67,2.93,12.28-4.01,3.75-7.94-.92-11.54-2.76-8.59-4.38-17.02-9.09-25.51-13.66-.03-1.42-.06-2.85-.09-4.27Z"/><path class="cls-111" d="M1061.67,354.47c3.84-5.65,8.76-10.02,15.12-12.67-3.23,6.38-7.97,10.96-15.12,12.67Z"/><path class="cls-89" d="M844.49,63.62c-3.28-4.44-4.4-9.52-4.37-14.93,3.77,4.3,4.8,9.4,4.37,14.93Z"/><path class="cls-106" d="M907.42,584.97c-.27-4.89,1.43-9.06,4.62-12.7,.26,4.89-.47,9.41-4.62,12.7Z"/><path class="cls-111" d="M1022.38,283.01c.69,4.41-1.07,8-3.8,11.25-.96-4.51,.7-8.12,3.8-11.25Z"/><path class="cls-12" d="M675.08,2040.67c-27.77-12.99-57.13-21.78-85.78-32.42-43.9-16.3-88.03-31.97-131.99-48.13-14.16-5.2-17.55-10.73-17.57-25.96,0-7.96,0-15.91,0-23.87,0-3.27-.41-6.89,4.77-6.17,21.98,12.78,46.6,18.94,70.14,27.74,46.56,17.41,93.35,34.23,140.14,51.03,5.32,1.91,9.73,6.24,15.84,5.96,16.53,2.42,31.58,9.6,47.05,15.2,40.62,14.69,81.13,29.68,121.84,44.13,2.71,.96,5.19,2.51,7.97,3.34,2.61,.77,4.94,2.14,4.16,5.24-.66,2.63-3.3,2.19-5.43,2.32-6.44,.39-12.95-.9-19.35,.74-3.24-.48-5.9,.94-8.5,2.56-5.72,1.74-11.64,2.6-17.42,4.03-2.63,1.05-6.22,1.34-7.73,3.26-10.31,13.12-21.57,6.35-32.85,2.2-28.42-10.45-56.86-20.82-85.3-31.23Z"/><path class="cls-105" d="M826.89,2059.84c7-4.4,15.24-1.55,25.55-3.91-28.01-10.15-53.52-19.13-78.84-28.63-34.3-12.87-69.24-24.03-102.96-38.44,4.77,1.11,6.63-4.88,11.08-4.55-1.65,3.61,.8,3.72,3.38,4.65,50.07,18.15,100.11,36.37,150.1,54.75,14.13,5.2,28.08,10.91,42.11,16.38-1.01,.15-2.02,.3-3.03,.46-15.76-2.73-31.63,1.41-47.4-.71Z"/><path class="cls-28" d="M987.84,1901.53c-2.78-.1-5.56-.2-8.33-.31,4.93-1.43,7.54-2.65,5.19-9.52-18.82-54.95-37.1-110.08-55.05-165.32-1.12-3.43-12.71-8.25-.27-12.39,17.61,42.83,30.15,87.43,45.44,131.07,5.33,15.21,10.06,30.62,15.07,45.95-3.02,3.05-.91,7.1-2.05,10.52Z"/><path class="cls-70" d="M627.63,1899.31c-1.04,4.25-4.25,5.08-7.43,4.58-3.16-.5-4.47-3.44-4.15-6.41,.36-3.4,3.28-4.63,6.17-4.42,3.67,.26,5.34,2.89,5.41,6.26Z"/><path class="cls-24" d="M705.33,1829.79c.02,3.13-1.05,5.2-3.42,5.44-2.08,.21-4.44-.61-4.84-3.3-.43-2.9,.69-5.01,3.85-5.3,2.67-.24,3.57,1.84,4.41,3.16Z"/><path class="cls-109" d="M838.46,1823.46c2.5,.2,3.98,1.53,3.8,4.05-.16,2.3-1.6,4.13-3.92,4.14-2.79,.02-4.67-1.6-4.37-4.7,.26-2.62,2.18-3.37,4.49-3.5Z"/><path class="cls-23" d="M646.47,1916.6c-.25,2.88-2.3,3.37-4.58,3.16-1.93-.18-3.43-1.34-3.3-3.45,.14-2.34,1.24-4.12,3.99-3.88,2.46,.22,3.95,1.5,3.89,4.17Z"/><path class="cls-36" d="M836.49,1761.39c-2.6-.35-4.06-1.84-4.1-4.29-.05-3.49,2.57-3.99,5.22-3.85,2.76,.15,3.53,2.23,3.35,4.58-.21,2.7-2.2,3.44-4.47,3.55Z"/><path class="cls-33" d="M801.5,1808.27c-2.07-.11-3.18-1.31-3.23-3.27-.07-2.55,1.36-3.82,3.9-3.62,1.94,.16,3.26,1.23,3.32,3.26,.08,2.65-1.55,3.64-3.99,3.63Z"/><path class="cls-21" d="M822.6,1840.98c-2.02-.05-3.53-1.07-3.57-3.06-.04-1.91,1.34-3.23,3.31-3.44,2.17-.24,3.42,1.21,3.51,3.08,.09,1.88-1.08,3.29-3.25,3.42Z"/><path class="cls-105" d="M692.57,1980c-2.85,3.36-6.56,4.55-10.84,4.32,2.78-3.52,6.46-4.81,10.84-4.32Z"/><path class="cls-68" d="M586.25,1332.25c-15.83-21.53-34.65-40.49-52.14-60.59-29.87-34.33-60.48-68.04-89.98-102.69-12.9-15.15-15.64-34.64-16.85-53.84-2.96-46.7,8.78-90.99,23.86-134.49,26.73-77.09,64.9-148.62,107.41-217.96,2.83-4.62,4.76-13.72,10.42-12.02,6.47,1.95,12.53,8.31,12.83,16.99-38.71,59.9-71.99,122.66-100.13,188.21-5.54,12.9-3.17,22.73,5.68,32.65,26.24,29.41,52.13,59.14,78.36,88.56,4.63,5.18,6.3,10.2,6.1,17.43-2.23,78.77,21.43,148.02,77.27,204.93,4.59,4.68,6.64,7.56-.98,10.53-18.85,7.34-37.65,14.84-56.52,22.13-1.56,.6-3.54,.14-5.32,.17Z"/><path d="M633.71,1214.65c-6.34,4.66-1.68,11.19-7,12.88-2.77,.88-8.15,3.42-8.75,.13-1.81-10.01-15.85-10.11-15.77-19.64,.06-6.41,8.3-5.3,16.59-8.4-18.7-1.17-17.51-12.99-18.78-23.83-3.2-27.24-1.56-54.39,.78-81.54,.49-5.69-.51-10.11-6.91-9.18-8.44,1.23-5.49-4.61-5.51-8.04-.03-7.12,3.47-3.42,6.89-2.26,5.78,1.96,6.64-3.63,7.52-6.91,2.62-9.74,9.25-11.12,17.13-8.42,8.13,2.78,11.29,.58,12.06-7.85,.45-4.95,1.26-10,2.23-14.86,.96-4.82,.65-12.21,9.78-10.87,4.82,.71,11.37,1.48,11.24-6.18-.14-8.42-6.65-6.67-12.06-6.02-.64,.08-1.32-.24-2.68-.52,2.26-6.78,4.5-12.27,13.31-7.63,4.17,2.2,7.22-.11,8.46-3.99,2.39-7.47,4.41-15.08,6.23-22.71,.56-2.36,.23-4.99-1.57-7.18-2.11-2.57-9.85-2.31-5.69-7.85,3.78-5.03,6.62-11.96,15.42-11.75,10.01,.24,23.57-11.6,24.36-21.19,.76-9.24,12.61-10.11,13.27-19.18,.06-.87,3.56-.38,4.62,1.2,3.21,4.78,6.03,9.21,12.77,4.19,2.22-1.65,3.74,1.31,4.09,3.48,1.55,9.69-2.9,19.77,1.86,29.31,.28,.55-.65,2.17-1.43,2.71-16.11,11.28-13.12,28.22-13.3,44.27-.09,8.16,7.23,12.21,10.04,18.76,1.74,4.06,5.8,7.43,1.48,12.52-1.31,1.54-.88,4.92-.59,7.39,2.37,20.52,.22,41.19,2.28,61.81,.77,7.75,1.24,16.01,1.03,24.04-.25,9.17,5.54,13.11,13.8,9.06,1.29-.63,2.39-1.64,3.66-2.29,4.62-2.38,10.86-4.73,12.98,.95,1.9,5.08,4.59,13.7-4.73,16.2-5.41,1.45-6.6,4.82-7.4,9.24-1.07,5.93-4.7,8.67-10.68,8.38-5.97-.29-6.81-4.36-6.67-9.1,.19-6.09-3-8.37-8.76-8.22-6.44,.16-12.89,0-19.33,.14-1.38,.03-3.85,.55-3.94,1.15-2.48,15.6-24.07,21.36-20.31,40.44,1.78,9.04-2.31,17.05-9.61,22.85-2.73,2.17-5.55,4.9-4.99,7.89,2.03,10.86-7.81,20.46-2.85,31.57,1.07,2.39-.83,4.93-3.22,6.28-5.3,3-10.43,6.56-16.08,8.66-9.13,3.39-13.1-.18-12.08-9.92,.04-.35,.45-.8,.34-1-6.5-11.69-4.19-24.54-3.55-38.95Z"/><path class="cls-68" d="M762.87,873.38c-17.62,1.72-34.12,6.29-49.38,14.59-36.05,19.61-58.34,50.73-73.07,88.04-6.93,17.53-11.38,35.7-13.51,54.45-.27,2.35,.88,5.62-2.15,6.68-3.63,1.27-4.9-2.46-6.64-4.43-22.47-25.45-44.81-51.01-67.19-76.54-.95-1.09-1.77-2.36-2.91-3.19-18.41-13.41-16.67-28.28-7.11-47.26,20.47-40.64,41.54-80.82,66.85-118.69,2.96-4.43,4.8-6.86,10.84-3.2,46.26,28.06,92.78,55.67,139.26,83.35,2.21,1.32,4.3,2.46,5.01,6.2Z"/><path class="cls-67" d="M388.16,1263.05c-2.95-6.84-9.41-10.62-14.06-15.97-25.78-29.68-35.81-65.44-39.31-103.37-1.47-15.97-.25-32.2-.25-51.39,63.99,72.74,126.02,143.23,188.58,214.35-4.93,.53-5.56-4.43-9-4.34-2.9-2.95-5.8-5.89-8.7-8.84-11.62-2.94-23.43-.78-35.15-1.19-7.22-.25-14.27-.81-21.11-3.21-22.34-3.98-42.32-13.5-61-26.04Z"/><path d="M522.37,1344.95c-3.63,5.69-9.33,7.22-13.46,11.22-12.07,11.68-20.52,24.03-15.19,41.78,.64,2.12-.6,4.1-2.55,3.66-7.75-1.78-14.13,5.39-21.92,2.99-5.16-1.59-8.27,1.12-10.08,5.71-1.83,4.65-3.1,9.58-5.45,13.95-4.91,9.15-12.59,14.13-23.28,14.75-6.91,.4-10.38,3.83-8.25,11.63,1.3,4.78,.37,10.17,1.69,14.94,1.21,4.41,.2,7.53-3.48,8.9-3.9,1.45-9.29-.03-10.09-3.65-1.99-9.02-7.05-13.24-15.75-14.11-.3-.03-.75-.4-.8-.68-2.59-12.68-17.66-15.43-21.58-27.15-.91-2.74-4.85-3.49-6.33-5.37-8.17-10.42-17.73-19.43-27.21-28.55-.94-.9-.98-2.68-1.66-3.93-7.06-13.07-6.1-17.27,8.34-17.92,10.27-.46,19.91-3.67,30.02-3.72,19.53-.09,39.07,.37,58.58-.19,9.87-.28,18.1,5.82,28.33,4.82,15.41-1.51,19.3-5.41,16.12-20.45-.59-2.8-.88-5.7-.89-8.56-.01-5.25-2.14-8.52-7.66-8.15-8.07,.55-11.27-4.2-11.73-11.02-.37-5.53-3.28-7.77-8.01-8.41-3.68-.5-7.54-.3-7.34-5.64,.13-3.54-1.06-7.51,2.06-10.26,3.73-3.3,6.56-.12,9.54,1.82,4.47,2.92,9.13,3.62,14.45,2.07,3.72-1.08,7.81-1.14,11.75-1.19,11.23-.14,15.77,3.47,13.47,14.45-1.97,9.41,.13,14.37,7.53,19.87,6.45,4.79,12.57,7.61,20.84,6.4Z"/><path class="cls-45" d="M553.88,1405.97c-15.02,1.36-27.81,9.25-41.06,15.18-4.67,2.09-12.39-1.08-14.4,6.67-2.61,.27-3.54-1.55-4.36-3.5,1.31-11.86,3.06-23.57,8.71-34.4,9.61-18.42,25.35-24.1,44.49-15.83,10.15,4.38,18.22,11.55,26,19.13-3.16,9.26-14.19,6.56-19.37,12.75Z"/><path d="M541.14,989.03c5.67,2.65,11.94,4.09,18.18,5.73,2.92,.76,4.39,3.63,3.95,7.79-1.88,17.59-.03,19.05,17.83,21.61,7.67,1.1,16.14,2.86,16.06,13.91-.01,2,1.33,4.08,2.27,6.01,1.45,2.98,5.71,5.57,1.53,9.3-3.8,3.39-7.74,6.74-13.49,3.87-2.24-1.12-5.13-3.16-6.96-2.54-14.58,5-14.07-3.83-14.23-13.95-.23-13.81-4.12-17.15-25.78-18.64-11.5-.79-7.73-10.04-9.59-14.86-1.85-4.82-1.44-12.89,4.62-17.35,1.27-.93,3.47-.59,5.6-.88Z"/><path class="cls-102" d="M792.51,826.82c4.37,.12,7.11-2.49,10.08-5.32,51.2-48.75,112.09-70.62,182.61-65.06,14,1.1,27.91,3.58,41.3,7.89,5.36,1.73,10.44,2.22,15.83,1.53,.63,5.17-4.25,4.13-6.64,5.89-18.81-4.75-37.66-9.42-57.12-10.58-52.44-3.12-100.28,10.22-143.64,40.02-12.83,8.82-23.66,19.94-35.84,29.47-2.19-1.28-4.39-2.56-6.58-3.84Z"/><path d="M511.5,988.97c-12.22,.46-18.34-7.27-15.26-18.07,1.28-4.47,3.02-8.76,3.07-13.62,.05-4.09,14.86-14.27,18.61-13.35,.35,.09,.86,.04,1.02,.26,.6,.83,1.46,1.71,1.57,2.64,1.47,12.58,16.95,22.32,7.99,36.84-4.01,6.49-12.5,1.44-17.01,5.31Z"/><path d="M616.86,1340.53c-5.72,5.04-10.36,9.4-15.3,13.37-2.01,1.62-3.96,2.87-4.54,5.65-.68,3.3,3.56,8.3-3.13,9.61-8.46,1.66-17.89,3.59-24.71-1.75-4.51-3.53-1.69-10.61,3.66-14.18,9.09-6.06,16.43-16.76,30.25-10.58,3.37,1.5,7.14-4.76,13.76-2.13Z"/><path d="M525.16,1590.72c.13,3.66-.43,6.9-4.91,6.49-4.31-.38-7.43-2.99-7.63-7.37-.18-3.91,2.91-5.16,6.48-5.36,4.64-.26,6.42,2.03,6.06,6.24Z"/><path d="M487.42,1545.87c4.13,.52,4.18,2.66,3.48,5.54-.91,3.75-.37,8.68-5.97,8.73-4.03,.03-5.41-3.14-5.19-6.82,.31-5.08,4.69-5.78,7.68-7.44Z"/><path class="cls-85" d="M449.16,1289.1c17.61,1.33,35.18,3.27,52.9,2.35,1.08-.06,2.23,1.33,3.35,2.05-15.18-.13-30.35-.23-45.53-.42-4-.05-7.98-.41-10.72-3.98Z"/><path d="M611.25,1366.32c-1.95,.19-2.88-.62-2.54-1.66,.38-1.16,1.31-2.52,2.36-2.98,1.47-.65,2.82,.4,2.35,2.04-.33,1.13-1.63,1.99-2.17,2.6Z"/><path class="cls-67" d="M1865.57,972.12c20.91,1.72,41.28,5.5,60.6,14.23,5.31,2.4,10.35,5.1,15.14,8.28,14.78,9.81,15.83,21.09,3.01,33.75-8.75,8.64-18.61,15.96-28.62,23.11-30.21,21.62-60.55,43.1-87.81,68.49-34.21,31.87-62.34,68.23-79.79,111.97-9.5,23.82-16.75,48.33-17.64,74.3-.15,4.27-1.38,8.5-2.11,12.74-10.83-44.99-5.03-88.83,9.33-132.01,14.49-43.55,40.88-80.04,68.61-115.83,16.12-20.81,32.71-41.33,46.58-63.82,6.71-10.88,11.83-22.27,12.7-35.22Z"/><path class="cls-88" d="M1754.39,991.15c.35-3.49,1.84-6.36,4.63-8.53,.53,3.97-.58,7.05-4.63,8.53Z"/><path class="cls-67" d="M1358.94,1888.25c-6.89,27.97-18.06,54.51-26.32,82.75-37.84-36.74-85.07-42.9-133.15-45.42-45.14-2.37-90.03-.66-133.36,14.64-18.57,6.56-35.8,15.03-48.5,32.28-8.47-25.38-16.69-50.01-24.9-74.64,65.2-9.09,130.65-14.96,196.49-16.71,54.64-1.45,109.13,1.02,163.58,5.21,2.09,.16,4.1,1.23,6.15,1.88Z"/><path class="cls-34" d="M1029.49,1837.89c-.51,2.52-1.82,4.01-4.43,3.56-2.06-.35-3.01-1.88-2.82-3.87,.24-2.55,1.83-3.77,4.37-3.37,2.05,.32,2.98,1.7,2.88,3.68Z"/><path class="cls-72" d="M996.71,1798.07c-.33,1.98-1.38,3.36-3.5,3.13-2.11-.22-2.91-1.73-2.78-3.78,.12-1.82,1.44-2.39,2.9-2.48,2.07-.12,3.3,.95,3.38,3.12Z"/><path d="M1452.76,511.22c-2.8-.39-5.9-.17-8.34-1.33-3.51-1.67-6.65-5.09-10.37-1.08-1.81,1.95,.2,4.45,6.29,8.61-7.35,11.21-16.97,20.07-28.86,26.39,.2-5.64-1.83-9.74-8.13-8.25-5.02,1.18-8.35,4.62-5.92,10.5,1.99,4.81-.47,7.78-4.18,9.8-4.23,2.31-6.91-.83-8.93-3.84-6.58-9.79-13.48-19.43-19.17-29.72-3.76-6.8-8.3-12.61-14.22-17.29-2.8-2.22-4.77-4.28-4.61-7.93,.18-4.08-1.66-7.59-5.24-8.74-18.85-6.09-23.1-24.58-32.64-38.41-2.96-4.29-3.45-9.86-9.68-11.85-3.45-1.1-5.46-5.09-6.03-8.61-1.1-6.83-3.57-11.73-11.35-11.95-.34,0-.95-.19-.98-.36-2.07-14.23-19.83-16.09-23.09-29.35-.26-1.05,0-2.54-.62-3.13-9.84-9.31-16.59-20.16-18.34-33.91-.26-2.07-3.55-1.9-5.56-2.61-9.79-3.46-11.69-7.81-7.39-17.03,1.19-2.56,1.79-4.74-.27-6.92-2.03-2.16-4.39-2.32-6.84-.7-1.79,1.19-3.59,2.96-5.48,.37-1.24-1.69-.23-3.4,.54-5.05,9.47-20.35,15.72-25.73,38.51-22.84,2.51,.32,6.13,.88,7.13-1.28,4.14-8.86,13.78-9.01,20.63-13.23,11.15-6.87,12.64-8.31,7.49-21.12,6.78-2.75,13.4-4.97,20.11,.52,1.04,.85,3.5,.18,5.25-.11,12.17-2,18.05,3.68,16.12,15.66-2.56,15.96,1.07,18.69,17.97,17.2,7.53-.66,13.62,4.82,14.72,13,.74,5.48,2.89,10.4,4.23,15.61,1.4,5.43,3.66,8.47,10.17,8.94,9.6,.69,20.68,15.58,19.81,24.99-.1,1.06-.86,2.88-.58,3.04,13.09,7.31,5.97,29.19,22.97,32.87,9.04,1.95,13.85,6.79,16.11,14.75,1.52,5.34,4.65,10.61,2.08,16.69-1.24,2.92,.45,5.1,3.67,5,4.55-.14,8.27,1.46,12.17,3.65,3.46,1.94,7.21,.98,9.02-3.13,1.05-2.38,1.78-5.46,5.04-3.94,2.66,1.24,4.43,4.25,3.14,7.29-3.42,8.09-5.43,15.32,6.57,17.47-.91,4.66,6.62,6.94,3.24,12.56-2.59,4.31-.08,6.97,4.32,7.38,4.82,.45,8.91-.72,8.04-7.05-.27-1.95-2.23-4.33,1.14-5.24,2.17-.58,3.13,1.03,3.6,3.01,2.44,10.46,6.05,20.71,4.56,31.79-.67,4.95-1.37,7.07-7.86,6.87-11.93-.38-23.41,5.28-35.85,3.74-5.2-.64-3.75,4.97-4.14,8.32Z"/><path d="M1557.79,125.3c1.64,3.37,2.38,6.41,4.24,8.42,4.67,5.04,8.98,3.87,11.65-2.15,.97-2.18,.6-4.95,.86-7.45,.28-2.6,2.97-4.82,4.19-3.67,9.1,8.63,16.93-17.35,25.84-.8,3.05,5.67,6.63,6.02,11.06,1.64,1.58-1.56,3.85-3.42,5.38-.91,4.97,8.13,13.17,13.01,19.12,19.88,3.98,4.59-.12,10.43-6,12.36-8.52,2.8-17.43,4.03-26.41,4.46-6.46,.3-13.1-.3-19.36,.98-9.29,1.9-16.89,3.08-16.35-10.26,.15-3.81-2.61-6-6.41-5.71-3.05,.23-7.39,.37-6.86,4.81,.67,5.72-2.49,5.7-6.41,5.87-5.97,.26-9.57-3.3-11.85-7.9-1.83-3.68,.4-7.38,3.63-9.2,4.75-2.68,8.91-5.99,13.69-10.38Z"/><path d="M1462.27,190.54c5.2-7.63,11.08-13.59,4.3-23.4-2.23-3.23,3.73-9.47,8.22-8.96,5.34,.6,8.84-2.91,13.11-3.17,11.11-.66,22.02,4.66,33.51,1.12,2.02-.62,4.23,4.02,4.26,6.78,.04,3.71-3.54,2.57-5.83,2.93-7.1,1.13-12.43,6.99-14.79,11.67-5.77,11.44-15.85,10.49-25.17,12.02-5.53,.91-11.35-.29-17.6,1.01Z"/><path d="M1423.73,198.89c-2.64,2.05-4.8,1.77-6.82,.97-2.59-1.02-4.89-1.35-6.56,1.4-1.58,2.59-.8,5.02,1.22,6.8,4.29,3.79,4.51,6.65-.89,9.74-8.1,4.63-5.91-3.8-7.52-6.21-3.65-5.46-4.58-11.91,1.99-16.09,6.49-4.12,13.27-5.17,18.59,3.4Z"/><path d="M1463.17,513.87c-1.9,4.18-3.38,9.14-8.83,9.88-3.69,.5-3.99-2.49-2.94-5.15,1.52-3.84,.3-9.94,7.45-9.48,3.06,.2,4.81,1.3,4.31,4.75Z"/><path d="M1273.73,268.72c3.36,.41,2.99,2.81,3.02,4.86,.08,5.51-3.02,7.55-8.15,7.31-1.84-.09-4.44-.61-3.87-2.46,1.4-4.56,5.27-7.3,9-9.7Z"/><path d="M1343.62,227.06c8.78-.69,13,1.88,13.02,7.24,.02,4.29-1.88,9.26-9.75,9.6,5.61-6.51,6.06-12.01-3.27-16.85Z"/><path d="M1559.89,166.26c-4.12,2.11-5.47,3.43-6.57,3.25-3.92-.62-7.85,4.82-11.64,0-3.21-4.07-.87-7.26,4.35-5.89,2.04,.54,3.96,1.55,6.01,2.03,1.66,.39,3.42,.3,7.86,.61Z"/><path d="M1639.56,172.02c-5.78,.07-11.56,.14-17.35,.21,9.01-8.57,12.43-8.62,17.35-.21Z"/><path d="M1665.63,172.04c-5.04,0-10.09,0-15.13,0,5.04-4.38,10.08-12.16,15.13,0Z"/><path d="M1414.22,368.21c3.78,4.38,7.56,8.76,12.06,13.99-9.5-.62-11.32-6.81-12.06-13.99Z"/><path class="cls-110" d="M1413.21,568.26c-2.89,4.88-8.72,6.02-12.46,9.82,1.7-6.39,6.59-8.73,12.46-9.82Z"/><path d="M1441.77,199.35c-1.61-5.07-2.67-8.4-3.73-11.74,3.51,2.44,7.09,4.87,3.73,11.74Z"/><path class="cls-100" d="M1531.51,494.15c-3.27,3.06-6.03,7.04-11.41,6.26,3.27-3.06,6.12-6.89,11.41-6.26Z"/><path class="cls-100" d="M1520.15,500.39c-2.39,4.51-6.57,5.84-11.24,6.31,2.99-3.45,6.54-5.9,11.24-6.31Z"/><path class="cls-97" d="M1565.63,180.77c-3.87,4.18-8.8,1.95-13.32,2.19,4.17-2.34,8.79-2.04,13.32-2.19Z"/><path class="cls-93" d="M1176.58,296.42c-2.85-2.41-5.57-4.92-6.39-8.8,3.63,1.85,6.61,4.16,6.39,8.8Z"/><path d="M1309.14,246.74c.61,.67,1.45,1.47,1.39,1.54-.59,.73-1.24,1.67-2.05,1.9-1.07,.3-2.32-.27-1.68-1.69,.35-.77,1.52-1.17,2.33-1.75Z"/><path d="M1411.58,542.12c-.25,4.62-1.21,6.92-4.69,7.75-.68-4.12,3.12-4.18,4.69-7.75Z"/><path class="cls-12" d="M892.72,2074.9c1.91-8.06,6.43-1.75,8.7-.95,32.17,11.34,64.19,23.1,96.25,34.76,5.69,2.07,11.37,4.16,17.59,6.44-3.38,3.04-6.97,.43-9.93,1.69-19.87-4.39-32.74,2.33-38.18,19.18-.99,3.07,.44,4.61,1,6.82-1.36,.19-2.73,.38-4.09,.57-21.5-21.14-42.99-42.31-64.55-63.39-2.01-1.97-4.52-3.42-6.8-5.12Z"/><path class="cls-16" d="M987.49,2137.61c20.26-4.76,52.63,7.64,63.53,23.47,1.99,2.88,2.73,5.51,1.6,9.05-3.61,11.3-6.64,22.79-10.35,34.05-3.25,9.87-11.74,14.73-21.87,12.69-10.58-2.13-21.07-4.71-31.6-7.1-2.18-.5-4.64-1.25-4.01-3.99,.69-2.96,3.19-1.94,5.28-1.44,9.43,2.25,18.89,4.41,28.32,6.68,9.47,2.29,16.49-1.46,19.24-10.57,2.39-7.92,3.94-16.17,7.07-23.78,3.52-8.56,1.21-13.95-5.72-19.52-10.82-8.7-23.17-12.64-36.5-14.52-4.86-.69-10.09-.06-15.01-5.02Z"/><path class="cls-98" d="M1103.04,2255.46c.63,5.56-3.27,13.51-5.43,21.79-.49,1.88-1.55,4.54-4.34,3.8-2.84-.75-2.28-3.18-1.59-5.3,6.1-18.93,3.25-37.63-1.34-56.31-.74-3.02-2.62-7.73,.89-8.58,5.01-1.2,4.47,4.3,5.12,7.53,2.25,11.22,6.11,22.13,6.7,37.07Z"/><path class="cls-19" d="M1124.65,2260.36c9.46,5.22,15.26,13.19,17.78,23.49,.41,1.67,.34,3.77-1.97,4.22-.77,.15-2.39-.57-2.53-1.17-2.43-9.82-10.09-16.84-13.28-26.54Z"/><path class="cls-68" d="M1617.66,1067.53c13.54,11.94,5.54,21.47-2.58,32.25-77.01,102.2-162.38,197.01-252.79,287.4-5.22,5.22-8.02,4.67-12.44-.62-8.05-9.63-15.51-19.86-25.46-27.76-56.37-64.06-112.73-128.13-169.1-192.18-6.44-7.32-12.65-14.88-19.49-21.81-5.06-5.13-5.42-8.12,.3-13.78,66.08-65.38,129.21-133.5,188.46-205.17,1.61-1.95,3.05-4.03,4.58-6.04,15.92-22.78,34.13-43.81,50.93-65.92,26.66-35.09,52.14-70.94,75.58-108.24,23.24-36.99,44.91-74.84,62.12-115.11,1.95-4.55,2.25-12.09,9.49-11.49,6.1,.5,9.38,6.15,12.43,11.11,.95,1.54,1.39,3.33,2.08,5-.05,1.35-.1,2.7-.15,4.05-3.36,4.58-3.51,10.54-6.54,15.27-27.96,61.25-62.93,118.38-101.93,173.11-6.33,8.88-7.01,17.78-3.21,27.52,.61,3.73-1.87,6.01-3.93,8.52-19.63,23.91-28.94,51.72-33.99,82.02-9.22,55.3,.11,108,19.37,159.46,8.81,23.54,21.78,44.74,42,60.9,21.99,17.57,50.66,16.27,69.45-8.37,12.81-16.79,19.3-36.22,25.65-55.85,5.15-7.49,2.74-16.26,4.09-24.39,.16-1.16,.44-2.28,.78-3.39,4.56-21.44,4.22-42.94,.73-64.46-.51-1.09-.86-2.22-1.12-3.4-.25-2.98-.84-6.09,2.71-7.74,20.66,23.05,41.32,46.09,61.97,69.14Z"/><path class="cls-44" d="M1220.47,1383.98c-7.29,22.5-19.65,42.35-38.43,56.16-31.45,23.11-59.02,16.45-85.31-13.24-24.03-27.15-33.6-60.99-39.08-96.07-6.51-41.68-2.74-82.82,6.9-123.61,17.95,17.27,33.35,36.84,49.79,55.45,35.57,40.26,70.77,80.86,106.13,121.31Z"/><path class="cls-87" d="M1541.76,635.14c-.28-.23-.59-.43-.83-.7-15.27-16.95-15.15-16.9-24.19,3.44-30.37,68.32-71.1,130.43-114.88,190.67-21.25,29.24-43.51,57.7-66.48,85.59-1.76,2.14-2.96,5.12-6.24,5.66-1.38-1.68-2.75-3.36-4.13-5.04,4.71,1.44,6.25-2.46,8.41-5.12,58.19-71.67,112.7-145.89,156.62-227.4,11.1-20.6,21.18-41.7,29.82-63.45,3.18-8.01,6.25-9.89,11.77-1.81,3.77,5.51,10.04,9.14,12.2,15.92-.69,.74-1.37,1.49-2.06,2.23Z"/><path class="cls-73" d="M786.86,2104.44c15.97,8.28,38.87,1.06,48.53,23.78,4.12,9.68,12.61,17.48,19.05,26.19,2.4,3.25,4.7,6.63,1.72,10.79-3.19,4.45-6.51,8.78-12.17,10.2-.8,.2-2.29-.41-2.74-1.11-.86-1.35-.35-2.69,1.2-3.5,12.2-6.39,8.21-13.46,1.2-21.13-3.63-3.97-6.97-8.39-9.59-13.08-7.7-13.8-18.3-22.65-34.92-22-5.05,.2-8.85-2.82-13.1-4.63-1.01-.43-1.94-2.1-2.08-3.29-.21-1.86,1.5-2.08,2.9-2.23Z"/><path class="cls-105" d="M800.97,2066.44c5.45-2.88,11.2-4.49,17.43-4.03-5.3,3.55-11.03,5.24-17.43,4.03Z"/><path class="cls-44" d="M1550.56,1102.2c-4.67,18.46-10.83,36.12-21.65,52.22-22.97,34.18-58.67,34.14-85.96,6.3-22.64-23.09-35.41-51.53-44.09-81.79-14.86-51.8-18.26-104.26-5.39-157.2,6.21-25.56,18.08-47.84,36.46-66.64,32.52,36.7,65.07,73.37,97.53,110.12,8.81,9.98,17.34,20.2,26,30.31,.99,3.58-.95,7.53,1.37,10.94l.07,.14c3.31,23.17,3.29,46.34,.02,69.5h0c-2.86,8.47-.74,17.77-4.36,26.1Z"/><path class="cls-87" d="M1535.08,654.46c.79-5.69,2.02-11.18,6.54-15.27-.95,5.62-1.81,11.27-6.54,15.27Z"/><path class="cls-41" d="M1554.84,1006.46c-3.88-3.22-1.89-7.18-1.37-10.95,.74,.96,1.48,1.92,2.22,2.88-.28,2.69-.56,5.38-.84,8.07Z"/><path class="cls-38" d="M1928.52,563.41c-9.74,4.41-12.66-4.65-16.32-9.53-4.42-5.89,3.36-7.68,6.47-10.06,23.45-17.92,49.45-30.79,78.1-38.15,4.59-1.18,9.2-1.93,13.9-.61q7.99,15.56-9.34,20.89c-26.53,8.1-50.94,20.29-72.8,37.46Z"/><path class="cls-63" d="M1937.07,606.89c-4.28-9.47-8.56-18.93-12.83-28.4,7.51,8,11.55,17.58,12.83,28.4Z"/><path class="cls-68" d="M1175.57,1929.67c41.59,.89,82.65,4.62,121.41,21.66,9.11,4,17.02,9.38,23.7,16.67,10.52,11.48,10.54,20.86-.11,32.23-14.23,15.19-33.36,21.58-52.41,26.65-32.86,8.74-66.76,12.06-100.67,11.08-40.41-1.16-80.61-5.11-117.89-23.04-.32-.16-.7-.21-1.01-.38-13.13-7.32-27.85-15.04-27.02-32.09,.79-16.16,15.39-23.88,28.42-29.98,27.36-12.79,56.58-18.44,86.67-20.79,12.97-1.01,25.89-1.87,38.91-2.01Z"/><path class="cls-12" d="M2089.59,899.8c-2.34-4.87-2.73-9.73,.04-14.59,9.68-22.8,26.32-26.88,52.05-24.87,40.29,3.15,75.59,20.19,108.77,42.08,29.21,19.27,55.15,42.03,73.49,72.32,5.59,9.23,10.48,18.92,11.35,30.1,1.78,23.09-9.29,36.12-32.47,38.17-32.16,2.84-61.49-7.13-89.69-20.71-38.49-18.53-72.43-43.27-99.28-77-1.3-1.63-3.18-2.81-4.79-4.2-4.54-7.85-9.08-15.71-13.62-23.56-3.11-5.53-4.64-11.58-5.83-17.74Z"/><path class="cls-39" d="M2137.44,979.3c27.65,22.28,56.68,42.29,90.01,55.34,21.96,8.6,44.34,15.05,68.25,15.28,7.62,.07,14.38-4.35,22.52-3.68-7.11,17.01-19.12,24.64-36.99,25.82-33.82,2.24-64.09-9.14-93.25-23.57-24.89-12.31-47.91-28-68.19-47.3,.72-11.47,9.35-16.55,17.66-21.9Z"/><path class="cls-48" d="M2137.44,979.3c-6.7,6.65-12.36,14.13-17.66,21.9-9.12-7.02-16.65-15.57-23.6-24.66,3.87-8.99,5.89-19.42,17.42-22.48,7.86,8.49,17.11,15.68,23.85,25.24Z"/><path class="cls-35" d="M2113.59,954.05c-5.81,7.49-11.61,14.99-17.42,22.48-1.65-2.85-3.43-5.58-6.47-7.18,.26-8.99,9.03-12.57,12.42-19.58,6.74-6.4,8.43,.75,11.47,4.28Z"/><path class="cls-12" d="M716.33,300.66c-4.27-3.72-8.54-7.43-12.82-11.15-18.78-20.52-36.8-41.54-47.93-67.53-6.61-15.42-11.29-31.23-11.38-48.12-.23-42.85,26.74-68.97,69.7-67,22.33,1.02,43.05,8.05,62.86,18.35,5.67,2.95,5.55,5.43,3.54,10.76-19.44,51.64-38.52,103.41-57.77,155.12-1.34,3.59-1.82,7.89-6.21,9.56Z"/><path class="cls-40" d="M640.6,255.42c-12.89-23.71-20.02-48.66-15.79-75.9,1.92-12.37,6.66-23.42,16.86-32.94-6.89,30.93-1.47,58.82,12.88,85.35,1,1.84,1.15,4.14,1.7,6.23-1.91,8.75-5.35,16.11-15.64,17.27Z"/><path class="cls-46" d="M640.6,255.42c6.32-4.75,11.46-10.57,15.64-17.27,10.17,13.49,20.34,26.98,30.52,40.47-3.99,8.15-8.37,15.83-19.01,16.16-10.95-11.81-20.52-24.57-27.15-39.36Z"/><path class="cls-29" d="M667.75,294.78c8.88-2.4,12.48-11,19.01-16.16,2.7,2.83,5.14,5.99,8.16,8.42,4.17,3.35,4.53,6.77,1.54,10.91-3.49,3.8-6.98,7.59-10.47,11.39-9.4-.69-11.58-10.44-18.25-14.55Z"/><path class="cls-12" d="M309.47,680.57c-92.76,.71-166.39-75.44-166.33-166.31,.06-92.3,74.86-165.65,168.43-165.6,89.28,.05,163.41,75.27,163.54,165.95,.13,91.82-73.89,165.99-165.64,165.96Z"/><path class="cls-104" d="M2089.59,899.8c1.94,5.91,3.89,11.83,5.83,17.74-5.54-4.73-6.62-10.93-5.83-17.74Z"/><path class="cls-5" d="M1526.26,2081.51c4.33,3.49-.31,9.97,4.44,13.31,2.63,1.7,2.83,4.31,2.61,7.06-2.15,1.16-4.3,2.33-6.44,3.49-.97,11.86-12.05,17.07-17.21,26.18-.79,.78-1.59,1.56-2.38,2.34-1.49-1.78-2.97-3.57-2.64-6.14-1.26-6.67-1.27-13.34,0-20.01,4.36-5.03,8.72-10.06,13.08-15.1,2.36-2.77,4.84-5.46,6.6-8.69,.65-.82,1.29-1.64,1.94-2.46Z"/><path class="cls-60" d="M1504.64,2107.76c0,6.67,0,13.34,0,20.01-3.14-6.67-4.52-13.34,0-20.01Z"/><path class="cls-60" d="M1524.32,2083.97c-.03,4.54-2.76,7.04-6.6,8.69,.78-3.97,3.67-6.35,6.6-8.69Z"/><path class="cls-11" d="M1461.36,2264.71c1.73-.36,3.46-.73,5.21-1.09,8.77-.81,10.92,3.59,10.34,11.66-.67,9.35-.47,18.79-.05,28.17,.32,7.13-3.46,8.86-9.35,8.42-6.62-.5-5.29-4.83-4.85-9.47,1.18-12.58,1.55-25.21-1.31-37.69Z"/><path class="cls-12" d="M1533.31,2101.89c-3.06-1.54-1.73-4.71-2.61-7.06-.95-15.1,4.24-19.19,19.49-14.9,30.79,8.66,56.72,26.42,82.19,44.79,21.38,15.42,41.24,32.72,60.27,51,5.56,5.35,6.29,7.79-1.73,10.56-17.04,5.86-34.01,11.94-50.77,18.55-5.91,2.33-9.54,.03-13.59-3.31-34.89-28.81-68.47-58.82-91.55-98.6-.29-.5-1.13-.69-1.71-1.03Z"/><path class="cls-32" d="M1550.96,2135.74c22.2,26.73,47.8,49.97,76.01,72.83-11.33,4.19-21.33,7.85-31.3,11.6-4.36,1.64-6.53-1.47-9.31-3.77-20.88-17.31-39.54-36.82-57.03-57.49,5.99-8.86,10.61-19,21.63-23.16Z"/><path class="cls-43" d="M1550.96,2135.74c-8.37,6.64-12.45,17.28-21.63,23.16-8.31-7.85-12.41-18.73-19.67-27.34,1.56-11.46,12.85-16.54,17.2-26.18,2.55-.1,4.41,.32,6.06,2.98,5.75,9.29,11.98,18.28,18.03,27.38Z"/><path class="cls-8" d="M1035.7,771.76c2.21-1.96,4.43-3.93,6.64-5.89,28.67-10.37,57.35-20.74,86.03-31.12,4.83-.92,9.67-1.83,14.12-4.07,1.78-1.25,3.38-2.93,5.88-2.49,1.77,.83,3.54,1.65,5.31,2.47-.14,.44-.45,.66-.91,.67-1.42,2.35-5.04,2.46-5.66,5.61l-.52,.36c-9.71,6.78-16.91,16.22-25.53,24.16-3.13,2.88-5.78,6.32-9.74,8.23-1.02,1.56-2.05,3.11-3.07,4.67-4.17,1.81-6.29,5.99-9.86,8.5-1.68,2.47-3.32,4.98-6.22,6.23-3.1,1.4-5.13,4.81-8.98,4.81-15.55-7.98-30.24-17.8-47.49-22.13Z"/><path class="cls-66" d="M1111.32,769.69c11.37-11.21,20.63-24.73,35.26-32.39-11.26,11.34-21.07,24.25-35.26,32.39Z"/><path class="cls-66" d="M1098.39,782.85c1.93-4.4,4.62-7.93,9.86-8.5-2.54,3.69-4.45,8.13-9.86,8.5Z"/><path class="cls-110" d="M1147.1,736.94c-.62-4.41,2.65-4.89,5.67-5.61,0,3.8-3.37,4.16-5.67,5.61Z"/><path class="cls-44" d="M1681.04,563.37c8.95,11.23,20.71,19.77,29.44,31.27,4.21,5.54,7.6,11.89,13.52,16,33.93,46.52,57.47,98.11,72.67,153.38,4.63,16.85,7.82,34.53,5.76,52.45-1.09,9.52-3.54,19.18-12.3,23.71-8.98,4.65-17.98-.34-25.69-5.39-26.71-17.49-44.53-43.06-61.42-69.28-6.67-10.35-13.73-20.57-18.13-32.23-5.02-8.42-8.62-17.54-13.06-26.26h0c-2.45-2.5-2.1-6.3-4.17-8.98-7.25-13.89-12.24-28.67-17.22-43.46-2.76-10.18-4.4-20.66-8.43-30.49-1.75-14.15-5.7-27.99-4.56-42.55,.49-6.23,2.21-11.96,4.53-17.4,4.02-9.41,17.51-12.92,27.35-7.68,3.99,2.12,7.79,4.59,11.68,6.9Z"/><path class="cls-58" d="M1705.15,963.74c-4.36,.19-5.11,3.5-6.75,5.65-3.03,3.99-3.91,12.61-10.72,9.3-6.42-3.11-12.61-9.12-12.98-17.49-.26-5.98,3.31-11.25,7.24-15.37,4.95-5.18,8.35,.03,11.52,3.26,9.47,9.67,9.78,9.93,16.45-1.73,4.27-7.46,7.91-6.72,13.24-1.33,10.35,10.48,10.74,13.8,4.01,25.29-4.85,8.28-9.21,7.85-14.61,.91-2.39-3.07-5.11-5.9-7.39-8.51Z"/><path class="cls-65" d="M1548.22,785.06c-4.33-4.69-10.44-8.92-7.37-16.52,2.22-5.5,3.97-12.78,10.55-13.92,5.95-1.04,8.25,6.02,11.94,9.65,4.69,4.62,5.03,10.02,1.21,15.65-2.01,2.97-3.62,6.2-5.42,9.32-6.74,6.7-7.46-2.28-10.9-4.18Z"/><path class="cls-52" d="M1561.04,798.24c13.32,15.78,13.8,19.8,4.64,31.38-2.76,3.48-5.27,4.45-9.06,1.87-9.93-6.75-12.4-15.68-7.34-26.92,1.45-3.22,1.9-6.99,5.2-9.15,3.1-1.19,4.62,1.3,6.56,2.82Z"/><path class="cls-42" d="M1671.84,707.03c7.36,7.26,11.68,16.02,13.06,26.26-7.29-7.29-11.5-16.11-13.06-26.26Z"/><path class="cls-50" d="M1642.03,624.1c7.08,8.98,8.91,19.41,8.43,30.49-5.62-9.38-7.8-19.72-8.43-30.49Z"/><path class="cls-82" d="M1561.04,798.24c-2.19-.94-4.37-1.88-6.56-2.82-1.12-4.04-6.15-5.71-6.26-10.36,3.86,.79,5.42,7.62,10.9,4.18,.64,3,1.28,6,1.92,9Z"/><path class="cls-42" d="M1667.67,698.05c2.83,2.33,4.76,5.07,4.17,8.98-4.87-1.38-4-5.42-4.17-8.98Z"/><path class="cls-81" d="M1785.34,490.88c-.26,2.53,.52,5.06-1.8,6.28-2.49,1.31-4.01-.86-5.45-2.32-6.58-6.71-13.29-13.35-12.9-23.88,.29-7.86-6.18-11.82-10.43-16.87-5.01-5.94-11.79-14.36-5.71-19.18,5.17-4.11,12,6.49,13.49,11.65,4.34,15.02,11.15,28.12,21.55,39.61,1.06,1.17,.93,3.4,1.25,4.72Z"/><path class="cls-51" d="M1889.27,606.15c3.93,1.23,5.67,5.05,8.17,8.02,1.71,2.03,4.52,5.96,5.92,2.35,3.86-9.96,6.67-2.63,9.22,.11,4.92,5.28,9.74,10.79,10.18,18.61,.1,1.78,.66,3.78-1.27,4.83-2.06,1.12-3.22-.46-4.39-1.93-2.03-2.54-4.13-5.03-6.32-7.44-1.4-1.55-3.81-3.89-4.99-.94-4.1,10.3-6.79,2.19-9.47-.6-4.77-4.97-9.04-10.34-10.22-17.51-.44-2.7-.93-5.14,3.16-5.5Z"/><path class="cls-53" d="M977.1,1545.13c5.87,7.21,11.47,6.79,18.87,1.2,11.68-8.82,20.65-5.84,27.22,7.71,.6,1.23,1.43,2.94,1.02,3.97-2.95,7.37-10.36,9.69-16.42,13.14-4.66,2.65-8.73-.62-12.14-4.38-4.91-5.42-8.44-14.35-18.59-8.53,.11-4.37-2.44-8.75,.05-13.12Z"/><path class="cls-64" d="M840.9,1384.9c-.51,6.83,5.15,9.96,8.85,14.04,5.63,6.21,4.67,10.87-2.36,14.49-6.47,3.33-12.02,11.63-20.8,3.69-12.79-11.56-12.66-14.49,1.93-24.48,4.21-2.88,10.15-5.25,4.76-12.01,4.56-2.18,6.11,1.01,7.63,4.27Z"/><path class="cls-58" d="M977.1,1545.13c.25,4.37,5.44,8.77-.05,13.12-15.89,14.57-17.82,10.06-28.9-3-3.26-3.85-2.78-7.44,1.66-11.01,13.6-10.94,18.31-10.97,27.29,.89Z"/><path class="cls-59" d="M840.9,1384.9c-2.54-1.42-5.09-2.84-7.63-4.27,0,0,.07,.02,.07,.02-1.73-6.19-11.99-9.4-6.32-18.16,14.93-12.81,17.93-12.48,29.12,1.09,4.67,5.66,3.72,9.42-1.8,13.01-4.41,2.87-8.95,5.55-13.43,8.31Z"/><path class="cls-64" d="M827.02,1362.49c-2.53,7.67,6.41,11.34,6.32,18.16-3.39-5.61-16.85-7.71-6.32-18.16Z"/><path class="cls-68" d="M1190.13,998.08c-1.21-15.76,.56-31.63-2.29-47.43-5.24-29.01-14.42-56.53-29.53-81.88-18.63-31.24-44.53-55.62-73.69-76.81-15.75-9.29-31.58-18.38-49.48-23.01-1.8-.16-3.56-.47-5.3-1.03-34.31-11.11-69.26-12.9-104.71-7.03-38.31,6.35-72.55,22.16-102.67,46.27-8.47,6.78-19.25,12.06-23.35,23.5-76.58,84.51-81.95,201.72-13.44,293.48,4.05,3.32,4.76,8.75,8.22,12.56,29.28,32.27,64.54,54.91,106.61,66.7,3.99,1.12,7.8,1.39,11.2-1.54,29.15-21.05,57.66-42.93,85.23-66,5.39-4.51,8.24-3.76,12.12,1.26,5.06,6.54,10.69,12.64,16.07,18.93,5.23,3.66,8.4-.05,12.05-3.08,23.61-19.64,46.25-40.36,69.02-60.95,25.46-23.02,49.78-47.22,74.34-71.17,6.53-6.37,10.35-12.99,9.6-22.77Zm-70.21-34.97c-26.69,26.51-56.92,48.97-83.96,74.99-28.6,27.51-56.13,56.13-84.66,83.73-13.7,13.26-28.09,25.74-45.46,34.56-29.42,14.93-56.61,11.89-81.66-8.86-51.07-42.32-74.82-97.5-76.13-169.14,2.55-82.67,43.15-147.85,121.62-187.72,40.75-20.71,84.84-25.46,130.69-17.26,50.98,9.12,92.36,33.39,125.93,72.01,37.37,43,31.9,79.69-6.37,117.71Z"/><path class="cls-1" d="M1120.71,614.22c-3.73-6.12-1.83-9.43,4.83-11.74,23.72-8.21,47.28-16.88,70.94-25.25,12.6-4.46,23.68-1.95,32.92,7.89-1.43,7.07-8.94,4-12.46,7.52,6.34-.87,12.07-5.03,18.88-3.75,7.72,5.18,19.5,4.99,22.23,16.78-14.77,3.47-28.9,8.96-43.04,14.25-13.85,5.18-27.93,9.66-41.79,14.8-7,2.6-26.44-3.92-29.81-10.68-4.09-8.22,5.61-5.32,8.47-9.62-11.03,8.4-21.03,2.32-31.17-.2Z"/><path class="cls-13" d="M780.46,715.89c1.12,6.41-5.36,6.64-8.14,7.97-22.91,10.93-46.92,11.4-71.39,5.9-7.04-1.58-13.97-3.23-19.98-7.37-8.64-5.96-8.68-14.43,.59-19.35,10.1-5.37,20.64-10.1,32.67-9.36,2.84,.17,5.74-.54,8.62-.85,.96,.59,1.74,1.36,2.34,2.3,9.64,15.44,26,15.04,41.15,17.43,4.8,.76,10.27-1.42,14.14,3.32Z"/><path class="cls-2" d="M722.83,692.83c5.76-8.46,14.86-10.86,24-12.93,23.34-5.29,46.51-4.77,69.17,3.35,6.02,2.16,13.06,4.98,13.17,12.62,.12,7.71-6.89,10.4-12.91,12.79-10.46,4.15-21.37,6.33-32.68,6.24-14.76-14.76-33.19-18.89-53.22-18.49-2.52,.05-5.03-.4-6.99-2.29,.03-.53-.15-.96-.55-1.3Z"/><path class="cls-71" d="M1120.71,614.22c1.19-.72,3-2.36,3.46-2.04,10.35,7.21,20.41,3.58,30.51-.49,2.07-.83,4.61-1.47,5.25,1.51,.69,3.18-2.48,2.85-4.29,3.51-3.7,1.35-7.46,2.53-11.13,3.76,8.94,11.24,20.11,14.69,32.67,10.22,24.4-8.68,48.88-17.16,73.23-25.98,3.06-1.11,5.38-1.91,7.63,.96-9.02,7.82-20.91,9.11-31.43,13.39-16.89,6.87-34.51,11.94-51.67,18.19-7.01,2.55-13.13,2.24-19.45-1.75-11.49-7.26-23.18-14.2-34.79-21.27Z"/><path class="cls-30" d="M723.38,694.13c14.57-1.57,28.73,.42,42.62,4.85,8.32,2.65,14.81,7.2,17.58,15.92-1.04,.32-2.07,.65-3.12,.98-13.26-.84-26.81-.28-39.39-5.15-7.8-3.02-18.45-4.05-17.7-16.6Z"/><path class="cls-74" d="M1235.82,588.89c-6.27,2.39-12.56,4.74-18.81,7.21-2.43,.96-5.25,2.18-6.12-1.25-.78-3.05,2.28-3.91,4.65-4.75,4.63-1.64,9.24-3.31,13.86-4.97,2.98-.18,6.01-.44,6.42,3.76Z"/><path class="cls-110" d="M1142.49,730.68c-4.1,3.44-8.64,5.37-14.12,4.07,4.41-2.39,8.88-4.56,14.12-4.07Z"/><path class="cls-113" d="M663.65,2027.49c-19.35-7.35-40.57-15.23-61.6-23.57-3.97-1.58-6.39-5.63-8.32-9.66-2.26-4.72-2.25-9.06,1.48-12.95,3.26-3.41,6.93-4.52,11.71-2.75,19.23,7.12,38.6,13.86,57.81,21.02,6.44,2.4,10.52,7.59,12.48,14.11,2.28,7.6-3.85,14.84-13.56,13.8Z"/><path class="cls-58" d="M1360.7,1307.71c-5.24,1.3-7.2,5.71-10.74,7.98-4.16,2.67-7.1,10.47-13.26,5.83-5.77-4.34-14.08-9.31-12.04-17.76,1.72-7.13,8.21-12.81,15.61-15.26,5.53-1.83,8.35,3.53,11.01,7.13,5.63,7.63,10.31,9.21,17.54,1.1,9.5-10.66,22.09-7.51,26.02,6.47,2.76,9.81-7.47,12.92-12.55,18.34-4.58,4.89-8.47,.58-11.74-2.85-3.44-3.61-6.68-7.43-9.86-10.99Z"/><path class="cls-57" d="M1211.26,1139.59c-1.8-5.44-5.68-8.34-8.6-11.89-7.92-9.63-7.27-11.19,4.84-22.4,7.51-6.95,11.92-2.98,16.85,2.76,8.85,10.31,9.33,11.7-1.3,20.85-8.28,7.12-9.68,12.77-.66,20.07,3.45,2.79,8.19,6.91,5.47,11.77-3.63,6.47-8.55,13.88-16.16,14.79-8.06,.97-11.12-7.89-15.53-13.24-3.7-4.49-.15-8.16,2.85-11.25,3.95-4.07,8.26-7.78,12.24-11.47Z"/><path class="cls-41" d="M1554.92,1076.1c0-23.17-.01-46.34-.02-69.5,.74,.74,2.07,1.43,2.15,2.23,2.08,22.51,4.99,45.06-2.13,67.27Z"/><path class="cls-41" d="M1550.56,1102.2c-.71-9.06,.45-17.8,4.36-26.08-.52,8.85,2.21,18.25-4.36,26.08Z"/><path class="cls-67" d="M464.82,515.71c-1.33,48.82-20.57,89-57.87,120.75-6.95,5.92-14.52,6.18-22.36,4.6-9.07-1.83-12.1-9.99-6.52-18.31,12.57-18.73,22.11-38.54,26.17-60.96,6.4-35.36,1.63-69.58-10.48-102.87-6.49-17.83-5.97-26.51,4.67-31.84,18.4-9.23,36.97-5.27,45.58,10.06,13.66,24.34,21.41,50.3,20.82,78.58Z"/><path class="cls-3" d="M254.81,466.96c22.81,19.42,46.1,35.69,69.35,52,4.11,2.88,4.81,5.47,2.12,9.81-6.84,10.99-13.46,22.13-19.88,33.37-2.27,3.97-5.08,5.64-9.62,5.12-12.89-1.5-25.79-3.04-38.72-4.1-6.04-.5-8.52-3.42-8.06-9.05,2.34-28.34,.83-56.88,4.81-87.14Z"/><path class="cls-2" d="M336.01,537.59c0,13.09-.06,26.18,.02,39.27,.07,12.65,.27,25.3,.45,37.95,.04,2.95,.56,6.78-4.24,4.28-24.77-12.9-49.21-26.37-71.18-44.73,13.07,.9,26.23,1.15,39.17,2.96,6.66,.93,9.88-1.02,12.98-6.38,6.57-11.38,13.66-22.45,20.54-33.65,.75,.1,1.51,.19,2.26,.29Z"/><path d="M840.26,827.25c2.28,2.54,.1,4.65,.46,6.6,.75,4.01-5.08,10.97,2.01,11.47,5.75,.4,15-1.42,13.96-11.27-1.44-13.69,8.02-15.91,17.69-18.47,4.53-1.2,7.23-.77,5.68,4.98-.55,2.06-.35,4.32-.71,6.45-1.44,8.51,1.38,11.81,10.7,12.45,23.37,1.61,40.55,13.53,51.08,34.71,3.04,6.11,3.99,10.15-5.24,11.41-12.47,1.71-24.72,5-37.08,7.56-3.61,.75-6.57,.89-9.38-2.92-19.33-26.25-47.92-25.66-66.68,1.39-9.68,13.97-13.39,29.85-10.16,46.43,2.84,14.57,9.16,27.62,25.22,32.32,16.05,4.7,29.09-1.51,40.3-12.28,9.69-9.32,14.72-21.3,16.2-34.56,.56-5.01,1.77-7.53,7.36-8.47,12.78-2.15,25.39-5.29,38.06-8.05,6.49-1.41,8.88,.12,8.1,7.66-2.97,28.68-16.41,51.33-38.89,68.56-6.7,5.13-8.37,9.87-5,17.18,1.35,2.92,2.08,6.14,2.95,9.26,4,14.22,3.79,13.73-9.87,18.92-7.08,2.69-9.97,1.02-11.51-5.82-.78-3.5-2.33-6.82-3.48-10.24-3.32-9.86-7.19-11.14-16.41-5.87-3.07,1.75-4.1,3.57-2.66,6.92,2.13,4.97,3.43,10.36,6.08,15.01,3.59,6.31,1.99,8.31-4.43,11.72-9.8,5.21-14.2,2.48-17.2-6.82-.88-2.73-2.42-5.26-3.13-8.02-2.54-9.81-7.67-13.89-18.81-14.83-20.38-1.72-34.44-14.85-41.61-33.46-15.49-40.23-5.67-75.88,22.86-106.8,6.51-7.05,12.9-13.34,13.25-23.58,.45-13.24,10.74-16.01,20.26-19.53Z"/><path class="cls-74" d="M1207.52,605.89c-8.94-5.58-17.3-10.8-25.53-15.94,1.78-4.08,4.14-3.44,5.87-2.46,8.13,4.62,16.21,9.33,24.13,14.29,5.12,3.2,4.91,6.41-.39,9.64-17.83,10.88-46.72,6.84-59.79-8.47-1.33-1.56-1.87-3.1-.65-4.78,1.16-1.6,2.68-.57,3.82,.08,3.74,2.14,7.66,4.1,11.02,6.76,13.03,10.34,26.36,10.97,41.52,.87Z"/><path class="cls-15" d="M664.92,2022.03c-4.76-1.81-10.75-4.17-16.81-6.37-12.8-4.65-25.58-9.38-38.48-13.73-4.38-1.48-7.75-4.1-10.02-7.71-1.66-2.64-2.33-6.33-.2-9.24,2.11-2.89,5.31-1.66,7.9-.72,18.2,6.57,36.36,13.28,54.52,19.96,5.05,1.86,8.63,5.2,9.8,10.55,.91,4.16-.29,7.15-6.73,7.26Z"/><path class="cls-114" d="M2000.8,1159.34c-20.51-20.51-48.86-33.2-80.16-33.2-30.07-.04-58.92,11.91-80.16,33.2-20.51,20.51-33.2,48.86-33.2,80.16-.04,30.07,11.91,58.92,33.21,80.16,20.51,20.52,48.86,33.2,80.16,33.2,30.07,.04,58.92-11.91,80.16-33.2,21.02-20.96,32.95-49.35,33.2-79.04v-2.22c-.25-29.69-12.18-58.09-33.2-79.05Zm-80.16,177.45c-25.81,.03-50.56-10.22-68.79-28.49-18.28-18.23-28.53-42.99-28.5-68.8-.03-25.81,10.23-50.57,28.5-68.8,17.61-17.6,41.93-28.49,68.79-28.49,22.22-.04,43.77,7.56,61.05,21.52-8.91-3.38-18.58-5.23-28.67-5.23h0c-21.48-.03-42.09,8.51-57.26,23.72-15.21,15.17-23.75,35.78-23.72,57.27-.03,21.48,8.51,42.09,23.72,57.26,14.65,14.65,34.89,23.72,57.26,23.72,10.1,0,19.76-1.84,28.67-5.22-16.69,13.47-37.93,21.52-61.05,21.52Zm32.38-32.37c-17.22,.02-33.74-6.82-45.9-19.02-12.19-12.16-19.04-28.68-19.01-45.9-.02-17.22,6.82-33.74,19.01-45.9,12.16-12.19,28.68-19.04,45.9-19.01,16.89-.02,33.11,6.56,45.21,18.33-3.97-1.06-8.14-1.62-12.44-1.62-12.78-.02-25.05,5.07-34.08,14.12-8.73,8.72-14.12,20.78-14.12,34.09-.01,12.79,5.07,25.06,14.12,34.09,9.03,9.05,21.3,14.13,34.09,14.12,4.3,0,8.46-.56,12.43-1.62-12.1,11.78-28.33,18.36-45.21,18.34Zm64.92-64.92c0,8.53-3.38,16.71-9.42,22.73-6.02,6.03-14.2,9.42-22.72,9.41-8.53,.01-16.71-3.37-22.73-9.41-5.81-5.82-9.41-13.85-9.41-22.73-.01-8.53,3.37-16.71,9.41-22.73,6.02-6.04,14.21-9.42,22.73-9.41,8.52,0,16.7,3.38,22.72,9.41h0c5.94,5.92,9.32,13.93,9.41,22.32v.41Z"/></svg>