<?xml version="1.0" encoding="utf-8"?>
<!-- Generator: Adobe Illustrator 26.1.0, SVG Export Plug-In . SVG Version: 6.00 Build 0)  -->
<svg version="1.1" id="Layer_1" xmlns="http://www.w3.org/2000/svg" xmlns:xlink="http://www.w3.org/1999/xlink" x="0px" y="0px"
	 viewBox="0 0 3800 1400" style="enable-background:new 0 0 3800 1400;" xml:space="preserve">
<style type="text/css">
	.st0{font-family:'DrukTextWideCyr-Medium';}
	.st1{font-size:461.1458px;}
</style>
<g id="XMLID_00000028301982184652003940000007156517268388372368_">
	<g>
		
			<image style="overflow:visible;" width="704" height="763" xlink:href="6E50E2F9.png"  transform="matrix(1 0 0 1 45.7697 319.6303)">
		</image>
	</g>
</g>
<g>
	<path d="M280.9,852.2c-0.6-3.2-1-5.8-1.3-7.9c-12-94.3-23.5-186.5-34.5-276.9c-1.1-10.2-0.4-7,11.6,27
		c98.6,263.9,196.5-373.5,294-8.2c1.2,4.3,2.2,8.9,3.1,13.1c-16.5,63.8-32.4,130.2-47.2,197.2C431.9,559.8,356.7,1119.1,280.9,852.2
		z"/>
</g>
<text transform="matrix(0.7039 0 0 1 797.7236 875)" class="st0 st1">CONUMAPAD</text>
</svg>
